<svg width="160" height="160" viewBox="0 0 160 160" fill="none" xmlns="http://www.w3.org/2000/svg">
<path d="M40.3932 119.688C34.4596 119.688 29.3592 118.627 25.092 116.506C20.8248 114.385 17.6813 111.469 15.6613 107.757C13.6413 104.045 12.9975 99.7909 13.7297 94.9935H34.1818C33.8283 97.6447 34.5101 99.7782 36.2271 101.394C37.944 102.985 40.1912 103.78 42.9687 103.78C45.1654 103.78 47.1601 103.326 48.9528 102.417C50.7455 101.483 52.2479 100.182 53.4599 98.5158C54.6718 96.8241 55.4672 94.842 55.8459 92.5695C56.2247 90.2971 56.0858 88.3276 55.4293 86.6611C54.7728 84.9694 53.6997 83.6691 52.21 82.7601C50.7203 81.8258 48.9023 81.3587 46.7561 81.3587C44.5089 81.3587 42.3627 81.9016 40.3175 82.9873C38.2723 84.0478 36.631 85.5249 35.3938 87.4186L17.5172 83.7827L27.6675 41.0605H79.7825L77.0555 57.8767H42.2112L37.8178 74.9958H38.2723C39.8882 72.6476 42.3122 70.7034 45.5441 69.1632C48.8013 67.5977 52.3868 66.815 56.3004 66.815C60.9211 66.815 64.86 67.8881 68.1172 70.0343C71.3744 72.1805 73.7352 75.1473 75.1997 78.9348C76.6642 82.7222 76.9798 87.0651 76.1466 91.9635C75.3133 97.3669 73.2681 102.152 70.0109 106.318C66.7537 110.484 62.5876 113.754 57.5124 116.127C52.4372 118.501 46.7309 119.688 40.3932 119.688Z" fill="#FE6100"/>
<path d="M125.949 65.3C126.177 62.8003 125.571 60.8435 124.131 59.4295C122.692 57.9903 120.268 57.2707 116.86 57.2707C114.688 57.2707 112.87 57.5232 111.406 58.0282C109.966 58.5332 108.843 59.2275 108.035 60.1112C107.252 60.995 106.76 62.0176 106.558 63.1791C106.33 64.088 106.343 64.9213 106.596 65.6788C106.873 66.411 107.391 67.0801 108.148 67.6861C108.931 68.2921 109.954 68.835 111.216 69.3147C112.504 69.7944 114.032 70.2237 115.799 70.6024L121.859 71.9659C126 72.8749 129.472 74.0742 132.274 75.564C135.102 77.0284 137.324 78.7706 138.94 80.7906C140.556 82.8106 141.617 85.0704 142.122 87.5701C142.652 90.0698 142.665 92.7968 142.16 95.7509C141.301 100.851 139.319 105.169 136.213 108.704C133.108 112.239 129.055 114.928 124.056 116.771C119.056 118.614 113.274 119.536 106.709 119.536C99.9928 119.536 94.2864 118.539 89.59 116.544C84.9189 114.524 81.5354 111.444 79.4397 107.303C77.3693 103.136 76.8643 97.8214 77.9248 91.3575H97.9224C97.6194 93.731 97.8719 95.7257 98.6799 97.3417C99.4878 98.9576 100.788 100.182 102.581 101.015C104.374 101.849 106.608 102.265 109.285 102.265C111.557 102.265 113.501 101.988 115.117 101.432C116.733 100.877 118.008 100.106 118.943 99.1218C119.877 98.137 120.445 97.0134 120.647 95.7509C120.849 94.5895 120.647 93.5542 120.041 92.6453C119.435 91.7363 118.337 90.9157 116.746 90.1834C115.155 89.4512 112.971 88.7821 110.194 88.1761L102.77 86.5096C96.1802 84.9947 91.206 82.4949 87.8478 79.0105C84.4896 75.5261 83.3029 70.7539 84.2876 64.694C85.0956 59.7451 87.1282 55.4275 90.3854 51.741C93.6678 48.0293 97.834 45.1509 102.884 43.1057C107.959 41.0352 113.577 40 119.738 40C126 40 131.239 41.0479 135.456 43.1436C139.698 45.2393 142.74 48.1808 144.584 51.9683C146.452 55.7557 146.957 60.1996 146.098 65.3H125.949Z" fill="#FE6100"/>
</svg>
