<svg width="16" height="24" viewBox="0 0 16 24" fill="none" xmlns="http://www.w3.org/2000/svg">
<path fill-rule="evenodd" clip-rule="evenodd" d="M14.45 3.56625H12.4663V2.5725C12.4663 2.29875 12.245 2.0775 11.9713 2.0775H10.4338C10.2013 0.94875 9.19628 0.09375 8.00003 0.09375C6.80378 0.09375 5.79878 0.94875 5.57003 2.0775H4.03253C3.75878 2.0775 3.53753 2.29875 3.53753 2.5725V3.56625H1.55003C0.728779 3.56625 0.0612793 4.23375 0.0612793 5.055V22.4175C0.0612793 23.2388 0.728779 23.9062 1.55003 23.9062H14.45C15.2713 23.9062 15.9388 23.2388 15.9388 22.4175V5.055C15.9388 4.23375 15.2713 3.56625 14.45 3.56625ZM8.00003 1.0875C8.64503 1.0875 9.20003 1.50375 9.40253 2.08125H6.59378C6.69705 1.79079 6.88763 1.53938 7.13938 1.36147C7.39114 1.18356 7.69176 1.08787 8.00003 1.0875ZM3.51127 19.77L5.16877 18.1125C5.36377 17.9175 5.67502 17.9175 5.87377 18.1125C6.06877 18.3075 6.06877 18.6187 5.87377 18.8137L3.86377 20.8237C3.76627 20.9212 3.53752 21.105 3.16252 20.8237L2.48377 20.145C2.28877 19.9537 2.28877 19.6387 2.48377 19.4437C2.67877 19.2487 2.99002 19.2487 3.18502 19.4437L3.51127 19.77ZM7.50502 19.44H13.4563C13.73 19.44 13.955 19.6612 13.955 19.935C13.955 20.2087 13.7338 20.43 13.46 20.43H7.50502C7.23128 20.43 7.01003 20.2087 7.01003 19.935C7.01003 19.6612 7.23128 19.44 7.50502 19.44ZM5.16877 13.1462L3.51127 14.8038L3.18502 14.4775C2.99002 14.2825 2.67877 14.2825 2.48377 14.4775C2.28877 14.6725 2.28877 14.9875 2.48377 15.1788L3.16252 15.8575C3.53752 16.1388 3.76627 15.955 3.86377 15.8575L5.87377 13.8475C6.06877 13.6525 6.06877 13.3413 5.87377 13.1462C5.67502 12.9513 5.36377 12.9513 5.16877 13.1462ZM13.4563 14.4738H7.50502C7.23128 14.4738 7.01003 14.695 7.01003 14.9688C7.01003 15.2425 7.23128 15.4638 7.50502 15.4638H13.46C13.7338 15.4638 13.955 15.2425 13.955 14.9688C13.955 14.695 13.73 14.4738 13.4563 14.4738ZM3.51127 9.80375L5.16877 8.14625C5.36377 7.95125 5.67502 7.95125 5.87377 8.14625C6.06877 8.34125 6.06877 8.6525 5.87377 8.8475L3.86377 10.8575C3.76627 10.955 3.53752 11.1388 3.16252 10.8575L2.48377 10.1788C2.28877 9.9875 2.28877 9.6725 2.48377 9.4775C2.67877 9.2825 2.99002 9.2825 3.18502 9.4775L3.51127 9.80375ZM7.50502 9.47375H13.4563C13.73 9.47375 13.955 9.695 13.955 9.96875C13.955 10.2425 13.7338 10.4638 13.46 10.4638H7.50502C7.23128 10.4638 7.01003 10.2425 7.01003 9.96875C7.01003 9.695 7.23128 9.47375 7.50502 9.47375Z" />
</svg>
