<svg width="24" height="24" viewBox="0 0 24 24" fill="none" xmlns="http://www.w3.org/2000/svg">
<path d="M20.6861 13.5569C21.0251 13.7679 21.4395 13.685 21.673 13.346C22.6524 11.9598 23.2249 10.1066 23.2249 8.20061C23.2249 6.28711 22.6599 4.42634 21.673 3.04771C21.4395 2.7087 21.0251 2.62584 20.6861 2.84431C20.332 3.06278 20.2793 3.50725 20.543 3.89899C21.3415 5.06668 21.8011 6.60351 21.8011 8.20061C21.8011 9.79018 21.334 11.3195 20.543 12.4947C20.2868 12.8864 20.332 13.3309 20.6861 13.5569ZM17.6727 11.5455C17.9891 11.7489 18.411 11.6735 18.6445 11.3496C19.2472 10.536 19.6013 9.3909 19.6013 8.20061C19.6013 7.00279 19.2472 5.86523 18.6445 5.04408C18.411 4.72014 17.9891 4.64481 17.6727 4.86328C17.3111 5.09682 17.2433 5.54129 17.5296 5.96317C17.9515 6.55078 18.185 7.35686 18.185 8.20061C18.185 9.03683 17.9439 9.83538 17.5296 10.4381C17.2508 10.8599 17.3111 11.2969 17.6727 11.5455ZM12 11.6359C13.6498 11.6359 15.0435 10.1744 15.0435 8.28348C15.0435 6.43778 13.6423 5.02902 12 5.02902C10.3652 5.02902 8.96402 6.46038 8.96402 8.29855C8.97155 10.1744 10.3577 11.6359 12 11.6359ZM7.30665 18.642H16.6934C17.9364 18.642 18.3658 18.2653 18.3658 17.5798C18.3658 15.6362 15.9099 12.9693 12 12.9693C8.09767 12.9693 5.63422 15.6362 5.63422 17.5798C5.63422 18.2653 6.06362 18.642 7.30665 18.642Z" fill="#666666"/>
</svg>
