<svg width="176" height="176" viewBox="0 0 176 176" fill="none" xmlns="http://www.w3.org/2000/svg">
<g clip-path="url(#clip0_40001429_7772)">
<path d="M121.66 55.587L73.3334 103.914L47.0067 77.6603L36.6667 88.0003L73.3334 124.667L132 66.0003L121.66 55.587ZM88.0001 14.667C47.5201 14.667 14.6667 47.5203 14.6667 88.0003C14.6667 128.48 47.5201 161.334 88.0001 161.334C128.48 161.334 161.333 128.48 161.333 88.0003C161.333 47.5203 128.48 14.667 88.0001 14.667ZM88.0001 146.667C55.5867 146.667 29.3334 120.414 29.3334 88.0003C29.3334 55.587 55.5867 29.3337 88.0001 29.3337C120.413 29.3337 146.667 55.587 146.667 88.0003C146.667 120.414 120.413 146.667 88.0001 146.667Z" fill="white"/>
</g>
<defs>
<clipPath id="clip0_40001429_7772">
<rect width="176" height="176" fill="white"/>
</clipPath>
</defs>
</svg>
