<svg width="26" height="26" viewBox="0 0 26 26" fill="none" xmlns="http://www.w3.org/2000/svg">
<path d="M22.2913 10.8293C22.253 10.8314 22.2149 10.8214 22.1826 10.8006C22.1503 10.7798 22.1254 10.7493 22.1114 10.7135C21.9293 10.1074 21.6859 9.52128 21.3851 8.96439C21.3691 8.92614 21.3659 8.88374 21.3759 8.84352C21.386 8.80329 21.4088 8.76739 21.4409 8.74117C21.6141 8.56798 21.7516 8.36236 21.8453 8.13605C21.9391 7.90974 21.9874 7.66718 21.9874 7.42222C21.9874 7.17725 21.9391 6.93469 21.8453 6.70838C21.7516 6.48207 21.6141 6.27645 21.4409 6.10327L20.553 5.21453C20.1963 4.87126 19.7199 4.68055 19.2248 4.68288C18.7298 4.68521 18.2552 4.88041 17.9018 5.22702C17.8754 5.25532 17.8409 5.27476 17.803 5.28266C17.7651 5.29057 17.7257 5.28655 17.6902 5.27117C17.1336 4.96986 16.5475 4.72675 15.941 4.54568C15.9057 4.53098 15.8758 4.50572 15.8554 4.47337C15.8349 4.44102 15.825 4.40315 15.8269 4.36494C15.8263 3.87053 15.6296 3.39656 15.28 3.04696C14.9304 2.69736 14.4564 2.50066 13.962 2.5H12.6943C12.1998 2.50044 11.7257 2.69707 11.376 3.04671C11.0264 3.39636 10.8298 3.87046 10.8293 4.36494C10.8312 4.40315 10.8212 4.44101 10.8006 4.47326C10.78 4.5055 10.7499 4.53053 10.7144 4.54485C10.1079 4.72617 9.52175 4.96956 8.96522 5.27117C8.92658 5.28679 8.88396 5.28973 8.84354 5.27955C8.80311 5.26936 8.76697 5.2466 8.74033 5.21453C8.39028 4.8655 7.91612 4.66951 7.4218 4.66951C6.92748 4.66951 6.45332 4.8655 6.10327 5.21453L5.21453 6.1041C5.04104 6.27871 4.90372 6.48584 4.81043 6.71361C4.71714 6.94139 4.66972 7.18534 4.67088 7.43147C4.67204 7.67761 4.72176 7.9211 4.8172 8.14798C4.91263 8.37487 5.0519 8.58069 5.22702 8.75366C5.25571 8.77997 5.2754 8.81463 5.28332 8.85274C5.29125 8.89086 5.28699 8.93049 5.27117 8.96606C4.96957 9.52249 4.72645 10.1087 4.54568 10.7152C4.53112 10.7505 4.50602 10.7804 4.47381 10.8008C4.4416 10.8212 4.40386 10.8312 4.36577 10.8293C3.87114 10.83 3.39696 11.0268 3.0472 11.3765C2.69744 11.7263 2.50066 12.2005 2.5 12.6951V13.9612C2.50066 14.4558 2.69744 14.93 3.0472 15.2797C3.39696 15.6295 3.87114 15.8263 4.36577 15.8269C4.40387 15.8251 4.4416 15.8351 4.4737 15.8557C4.50581 15.8763 4.53068 15.9065 4.54485 15.9419C4.7249 16.5414 4.96489 17.1213 5.26117 17.6727C5.28039 17.7128 5.28623 17.758 5.27783 17.8016C5.26944 17.8452 5.24724 17.885 5.21453 17.9151C4.8653 18.265 4.66917 18.7392 4.66917 19.2336C4.66917 19.728 4.8653 20.2022 5.21453 20.5522L6.1041 21.4417C6.27871 21.6152 6.48584 21.7525 6.71361 21.8458C6.94139 21.9391 7.18534 21.9865 7.43147 21.9854C7.67761 21.9842 7.9211 21.9345 8.14798 21.8391C8.37487 21.7436 8.58069 21.6044 8.75366 21.4292C8.78004 21.4007 8.8147 21.381 8.85278 21.3731C8.89087 21.3652 8.93047 21.3694 8.96606 21.3851C9.52249 21.6867 10.1087 21.9298 10.7152 22.1106C10.7505 22.1251 10.7804 22.1502 10.8008 22.1824C10.8212 22.2146 10.8312 22.2524 10.8293 22.2905C10.83 22.7851 11.0268 23.2593 11.3765 23.609C11.7263 23.9588 12.2005 24.1556 12.6951 24.1562H13.9612C14.4558 24.1556 14.93 23.9588 15.2797 23.609C15.6295 23.2593 15.8263 22.7851 15.8269 22.2905C15.8252 22.2522 15.8354 22.2143 15.8562 22.1821C15.8769 22.1499 15.9071 22.1249 15.9427 22.1106C16.5881 21.9177 17.2105 21.6546 17.7985 21.3259L17.9151 21.4409C18.2701 21.7807 18.7426 21.9704 19.234 21.9704C19.7255 21.9704 20.198 21.7807 20.553 21.4409L21.4409 20.553C21.6151 20.3786 21.753 20.1715 21.8468 19.9436C21.9406 19.7156 21.9883 19.4714 21.9872 19.2249C21.9861 18.9785 21.9362 18.7347 21.8405 18.5076C21.7447 18.2805 21.6049 18.0746 21.4292 17.9018C21.4005 17.8756 21.3809 17.8411 21.3731 17.803C21.3653 17.765 21.3698 17.7255 21.3859 17.6902C21.6863 17.1332 21.9294 16.5471 22.1114 15.941C22.1255 15.9055 22.1506 15.8753 22.1829 15.8548C22.2152 15.8343 22.2531 15.8246 22.2913 15.8269C22.7858 15.826 23.2598 15.6292 23.6093 15.2794C23.9589 14.9297 24.1556 14.4556 24.1562 13.9612V12.6951C24.1556 12.2006 23.9589 11.7266 23.6093 11.3768C23.2598 11.0271 22.7858 10.8302 22.2913 10.8293ZM22.4904 13.9612C22.4905 13.9874 22.4854 14.0133 22.4755 14.0376C22.4655 14.0618 22.4509 14.0839 22.4324 14.1025C22.4139 14.121 22.3919 14.1358 22.3677 14.1458C22.3435 14.1559 22.3175 14.1611 22.2913 14.1611C21.8949 14.16 21.5085 14.2861 21.1889 14.5207C20.8694 14.7553 20.6333 15.0861 20.5155 15.4646C20.3663 15.9611 20.1671 16.4411 19.9208 16.8972C19.7344 17.2513 19.6671 17.656 19.7287 18.0513C19.7904 18.4466 19.9778 18.8115 20.2631 19.092C20.2817 19.1106 20.2965 19.1327 20.3065 19.157C20.3165 19.1813 20.3216 19.2073 20.3214 19.2336C20.3218 19.2599 20.3168 19.286 20.3068 19.3104C20.2967 19.3347 20.2819 19.3568 20.2631 19.3752L19.3752 20.2631C19.3592 20.2856 19.338 20.304 19.3135 20.3167C19.2889 20.3293 19.2617 20.336 19.234 20.336C19.2064 20.336 19.1792 20.3293 19.1546 20.3167C19.13 20.304 19.1089 20.2856 19.0929 20.2631L18.5148 19.6851C18.3796 19.549 18.2016 19.4637 18.0109 19.4437C17.8201 19.4237 17.6283 19.4701 17.4678 19.5751C16.8507 19.9831 16.1772 20.2985 15.4688 20.5113C15.0891 20.6288 14.7571 20.8651 14.5217 21.1854C14.2863 21.5056 14.1599 21.893 14.1611 22.2905C14.1612 22.3168 14.1561 22.3428 14.1461 22.3671C14.1361 22.3914 14.1213 22.4135 14.1028 22.4321C14.0842 22.4507 14.0621 22.4654 14.0378 22.4754C14.0135 22.4854 13.9874 22.4905 13.9612 22.4904H12.6951C12.6688 22.4905 12.6428 22.4854 12.6185 22.4754C12.5942 22.4654 12.5721 22.4507 12.5535 22.4321C12.5349 22.4135 12.5202 22.3914 12.5102 22.3671C12.5002 22.3428 12.4951 22.3168 12.4952 22.2905C12.4959 21.894 12.3696 21.5077 12.1349 21.1882C11.9002 20.8686 11.5694 20.6326 11.1908 20.5147C10.6941 20.3662 10.214 20.1669 9.75818 19.92C9.49549 19.7779 9.20138 19.704 8.90275 19.7051C8.40023 19.7062 7.91876 19.907 7.56423 20.2631C7.52665 20.3003 7.47592 20.3212 7.42305 20.3212C7.37018 20.3212 7.31945 20.3003 7.28187 20.2631L6.39229 19.3744C6.35516 19.3369 6.33433 19.2864 6.33433 19.2336C6.33433 19.1809 6.35516 19.1303 6.39229 19.0929C6.6764 18.8085 6.86202 18.4406 6.92197 18.0431C6.98192 17.6457 6.91306 17.2394 6.72547 16.8839C6.48376 16.4328 6.28841 15.9584 6.14242 15.4679C6.02477 15.0889 5.78878 14.7574 5.46906 14.5223C5.14933 14.2871 4.76268 14.1605 4.36577 14.1611C4.33949 14.1612 4.31344 14.1561 4.28914 14.1461C4.26484 14.1361 4.24275 14.1213 4.22417 14.1028C4.20559 14.0842 4.19087 14.0621 4.18086 14.0378C4.17085 14.0135 4.16576 13.9874 4.16587 13.9612V12.6951C4.16576 12.6688 4.17085 12.6428 4.18086 12.6185C4.19087 12.5942 4.20559 12.5721 4.22417 12.5535C4.24275 12.5349 4.26484 12.5202 4.28914 12.5102C4.31344 12.5002 4.33949 12.4951 4.36577 12.4952C4.76225 12.4959 5.14855 12.3696 5.46809 12.1349C5.78764 11.9002 6.02365 11.5694 6.14158 11.1908C6.29005 10.6941 6.48935 10.214 6.7363 9.75818C6.9221 9.40407 6.98905 8.99958 6.92725 8.6045C6.86545 8.20941 6.67818 7.84469 6.39313 7.56423C6.35574 7.52676 6.33475 7.47598 6.33475 7.42305C6.33475 7.37012 6.35574 7.31934 6.39313 7.28187L7.28187 6.39229C7.30186 6.37333 7.32547 6.3586 7.35129 6.34897C7.37711 6.33934 7.4046 6.33502 7.43213 6.33626C7.45966 6.33751 7.48665 6.34429 7.51149 6.35621C7.53634 6.36813 7.55853 6.38493 7.57673 6.40562C7.85714 6.68704 8.22034 6.87122 8.61306 6.93118C9.00579 6.99114 9.40739 6.92372 9.75901 6.73879C10.2147 6.49155 10.6948 6.29224 11.1917 6.14408C11.5705 6.02572 11.9015 5.78911 12.1361 5.46893C12.3707 5.14876 12.4965 4.76185 12.4952 4.36494C12.4952 4.31214 12.5162 4.26151 12.5535 4.22417C12.5908 4.18684 12.6415 4.16587 12.6943 4.16587H13.962C14.0148 4.16587 14.0654 4.18684 14.1028 4.22417C14.1401 4.26151 14.1611 4.31214 14.1611 4.36494C14.1603 4.76153 14.2865 5.14795 14.5212 5.46764C14.756 5.78732 15.0868 6.02349 15.4654 6.14158C15.9618 6.29021 16.4416 6.4895 16.8972 6.7363C17.2516 6.92266 17.6565 6.98984 18.052 6.92787C18.4475 6.86591 18.8125 6.67809 19.0929 6.39229C19.1092 6.37024 19.1305 6.35233 19.155 6.33999C19.1795 6.32764 19.2066 6.32121 19.234 6.32121C19.2615 6.32121 19.2886 6.32764 19.3131 6.33999C19.3376 6.35233 19.3589 6.37024 19.3752 6.39229L20.2631 7.28187C20.282 7.30009 20.2968 7.32199 20.3069 7.3462C20.3169 7.37042 20.3219 7.39643 20.3214 7.42263C20.3209 7.45172 20.3144 7.48039 20.3023 7.50689C20.2903 7.53338 20.273 7.55714 20.2515 7.57673C19.9698 7.8568 19.7854 8.21987 19.7254 8.61255C19.6654 9.00523 19.733 9.40679 19.9183 9.75818C20.1648 10.2139 20.3641 10.6937 20.513 11.19C20.6307 11.5692 20.867 11.9007 21.1871 12.1357C21.5072 12.3706 21.8942 12.4966 22.2913 12.4952C22.3175 12.4952 22.3435 12.5004 22.3677 12.5104C22.3919 12.5205 22.4139 12.5352 22.4324 12.5538C22.4509 12.5724 22.4655 12.5944 22.4755 12.6187C22.4854 12.6429 22.4905 12.6689 22.4904 12.6951V13.9612Z" fill="black"/>
<path d="M14.4109 10.1706C13.82 9.9701 13.1848 9.93894 12.5772 10.0807C11.9695 10.2224 11.4136 10.5313 10.9724 10.9725C10.5312 11.4138 10.2222 11.9696 10.0805 12.5773C9.93879 13.185 9.96995 13.8202 10.1705 14.4111C10.329 14.8968 10.5997 15.3384 10.9606 15.7002C11.3215 16.0619 11.7624 16.3337 12.2478 16.4934C12.5945 16.6048 12.9565 16.661 13.3206 16.66C13.8511 16.6605 14.3742 16.5345 14.8463 16.2925C15.3184 16.0505 15.7261 15.6995 16.0355 15.2685C16.3449 14.8376 16.5471 14.3391 16.6254 13.8144C16.7037 13.2896 16.6559 12.7538 16.4858 12.2513C16.3277 11.7658 16.0575 11.3244 15.697 10.9629C15.3366 10.6014 14.8959 10.33 14.4109 10.1706ZM14.5075 14.5019C14.2843 14.7251 14.0026 14.8808 13.6948 14.9511C13.387 15.0214 13.0656 15.0034 12.7676 14.8992C12.5325 14.8203 12.319 14.688 12.1437 14.5127C11.9684 14.3374 11.8361 14.1239 11.7572 13.8888C11.6536 13.5907 11.636 13.2695 11.7066 12.9619C11.7771 12.6543 11.933 12.3728 12.1562 12.1497C12.3096 11.995 12.4922 11.8723 12.6933 11.7887C12.8945 11.705 13.1103 11.6621 13.3281 11.6624C13.5194 11.6633 13.7094 11.6942 13.8912 11.754C14.1261 11.8328 14.3397 11.9649 14.515 12.1401C14.6903 12.3152 14.8226 12.5286 14.9015 12.7635C15.0059 13.0617 15.024 13.3832 14.9537 13.6912C14.8834 13.9992 14.7276 14.281 14.5042 14.5044L14.5075 14.5019Z" fill="black"/>
</svg>
