<svg width="17" height="19" viewBox="0 0 17 19" fill="none" xmlns="http://www.w3.org/2000/svg">
    <path d="M6.04297 15.8423C5.88802 15.8423 5.76351 15.798 5.66943 15.7095C5.57536 15.6209 5.52555 15.502 5.52002 15.3525L5.271 6.479C5.26546 6.33512 5.30973 6.21891 5.40381 6.13037C5.50342 6.0363 5.6307 5.98926 5.78564 5.98926C5.93506 5.98926 6.0568 6.03353 6.15088 6.12207C6.25049 6.21061 6.30029 6.32682 6.30029 6.4707L6.55762 15.3525C6.55762 15.4964 6.51058 15.6154 6.4165 15.7095C6.32243 15.798 6.19792 15.8423 6.04297 15.8423ZM8.5 15.8423C8.34505 15.8423 8.21777 15.798 8.11816 15.7095C8.01855 15.6154 7.96875 15.4964 7.96875 15.3525V6.479C7.96875 6.33512 8.01855 6.21891 8.11816 6.13037C8.21777 6.0363 8.34505 5.98926 8.5 5.98926C8.66048 5.98926 8.79053 6.0363 8.89014 6.13037C8.98975 6.21891 9.03955 6.33512 9.03955 6.479V15.3525C9.03955 15.4964 8.98975 15.6154 8.89014 15.7095C8.79053 15.798 8.66048 15.8423 8.5 15.8423ZM10.9653 15.8423C10.8049 15.8423 10.6776 15.798 10.5835 15.7095C10.4894 15.6154 10.4451 15.4964 10.4507 15.3525L10.6997 6.479C10.7052 6.32959 10.755 6.21061 10.8491 6.12207C10.9432 6.03353 11.0649 5.98926 11.2144 5.98926C11.3748 5.98926 11.5021 6.0363 11.5962 6.13037C11.6903 6.21891 11.7345 6.33512 11.729 6.479L11.48 15.3525C11.4744 15.502 11.4246 15.6209 11.3306 15.7095C11.2365 15.798 11.1147 15.8423 10.9653 15.8423ZM4.85596 3.82275V1.96338C4.85596 1.36572 5.03857 0.895345 5.40381 0.552246C5.77458 0.203613 6.27816 0.0292969 6.91455 0.0292969H10.0688C10.7052 0.0292969 11.2061 0.203613 11.5713 0.552246C11.9421 0.895345 12.1274 1.36572 12.1274 1.96338V3.82275H10.8076V2.04639C10.8076 1.81396 10.7301 1.62581 10.5752 1.48193C10.4258 1.33805 10.2266 1.26611 9.97754 1.26611H7.00586C6.75684 1.26611 6.55485 1.33805 6.3999 1.48193C6.25049 1.62581 6.17578 1.81396 6.17578 2.04639V3.82275H4.85596ZM1.0874 4.48682C0.921387 4.48682 0.77474 4.42594 0.647461 4.3042C0.525716 4.17692 0.464844 4.02751 0.464844 3.85596C0.464844 3.68994 0.525716 3.54606 0.647461 3.42432C0.77474 3.29704 0.921387 3.2334 1.0874 3.2334H15.9209C16.0869 3.2334 16.2308 3.29427 16.3525 3.41602C16.4743 3.53776 16.5352 3.68441 16.5352 3.85596C16.5352 4.02751 16.4743 4.17692 16.3525 4.3042C16.2363 4.42594 16.0924 4.48682 15.9209 4.48682H1.0874ZM4.69824 18.5151C4.10059 18.5151 3.61637 18.3381 3.24561 17.9839C2.88037 17.6353 2.68392 17.1621 2.65625 16.5645L2.06689 4.3291H3.37012L3.95947 16.415C3.97054 16.6585 4.05632 16.8605 4.2168 17.021C4.37728 17.1815 4.5765 17.2617 4.81445 17.2617H12.1772C12.4207 17.2617 12.6227 17.1815 12.7832 17.021C12.9437 16.866 13.0295 16.6641 13.0405 16.415L13.5967 4.3291H14.9331L14.3521 16.5562C14.3244 17.1538 14.1252 17.6297 13.7544 17.9839C13.3836 18.3381 12.9022 18.5151 12.3101 18.5151H4.69824Z" fill="#FF3B30"/>
</svg>
