<svg width="24" height="24" viewBox="0 0 24 24" fill="none" xmlns="http://www.w3.org/2000/svg">
<g clip-path="url(#clip0_40000328_18230)">
<path fill-rule="evenodd" clip-rule="evenodd" d="M21 6.75V16.5H19.5V6.75H16.5C15.9033 6.75 15.331 6.51295 14.909 6.09099C14.4871 5.66903 14.25 5.09674 14.25 4.5V1.5H6C5.60218 1.5 5.22064 1.65804 4.93934 1.93934C4.65804 2.22064 4.5 2.60218 4.5 3V16.5H3V3C3 2.20435 3.31607 1.44129 3.87868 0.87868C4.44129 0.316071 5.20435 0 6 0L14.25 0L21 6.75ZM11.79 22.2615C11.7986 22.4978 11.8565 22.7298 11.9601 22.9424C12.0637 23.155 12.2107 23.3436 12.3915 23.496C12.5865 23.658 12.826 23.784 13.11 23.874C13.394 23.965 13.7265 24.0105 14.1075 24.0105C14.6145 24.0105 15.0435 23.9315 15.3945 23.7735C15.7495 23.6155 16.0195 23.3955 16.2045 23.1135C16.3937 22.8206 16.4913 22.4781 16.485 22.1295C16.485 21.7935 16.4175 21.5135 16.2825 21.2895C16.1453 21.0647 15.9513 20.88 15.72 20.754C15.455 20.6068 15.1693 20.5006 14.8725 20.439L13.941 20.223C13.7214 20.1814 13.5138 20.0912 13.3335 19.959C13.2653 19.9061 13.2105 19.838 13.1732 19.7601C13.136 19.6823 13.1174 19.5968 13.119 19.5105C13.119 19.2765 13.211 19.0845 13.395 18.9345C13.583 18.7825 13.8395 18.7065 14.1645 18.7065C14.3785 18.7065 14.5635 18.7405 14.7195 18.8085C14.8633 18.8659 14.9899 18.9594 15.087 19.08C15.1793 19.1914 15.2413 19.3247 15.267 19.467H16.392C16.3731 19.1618 16.2697 18.8679 16.0935 18.618C15.9045 18.3482 15.6451 18.1355 15.3435 18.003C14.9754 17.8408 14.5756 17.7629 14.1735 17.775C13.7335 17.775 13.345 17.85 13.008 18C12.672 18.149 12.4085 18.3595 12.2175 18.6315C12.0275 18.9045 11.9325 19.224 11.9325 19.59C11.9325 19.892 11.994 20.154 12.117 20.376C12.24 20.598 12.4155 20.7815 12.6435 20.9265C12.8725 21.0695 13.1425 21.176 13.4535 21.246L14.3805 21.462C14.6905 21.535 14.9215 21.6315 15.0735 21.7515C15.1482 21.8086 15.2081 21.8828 15.2481 21.9679C15.288 22.053 15.3069 22.1465 15.303 22.2405C15.3064 22.3952 15.2619 22.5471 15.1755 22.6755C15.0789 22.8071 14.9459 22.9077 14.793 22.965C14.625 23.035 14.4185 23.07 14.1735 23.07C13.9975 23.07 13.8375 23.05 13.6935 23.01C13.56 22.9744 13.4336 22.9161 13.32 22.8375C13.2203 22.7727 13.1349 22.6882 13.0691 22.5891C13.0033 22.4901 12.9585 22.3786 12.9375 22.2615H11.79ZM6.201 17.898H7.5405L5.6295 20.9085L7.5105 23.8965H6.1485L4.8735 21.774H4.821L3.5415 23.8965H2.25L4.11 20.8725L2.268 17.898H3.6645L4.9125 20.055H4.9665L6.201 17.898ZM9.0855 22.8855H11.631V23.8965H7.899V17.898H9.0855V22.8855ZM20.5395 17.898H21.879L19.968 20.9085L21.849 23.8965H20.487L19.212 21.774H19.1595L17.88 23.8965H16.5885L18.4485 20.8725L16.6065 17.898H18.003L19.251 20.055H19.305L20.5395 17.898Z" fill="black"/>
</g>
<defs>
<clipPath id="clip0_40000328_18230">
<rect width="24" height="24" fill="white"/>
</clipPath>
</defs>
</svg>
