<svg width="21" height="20" viewBox="0 0 21 20" fill="none" xmlns="http://www.w3.org/2000/svg">
<path d="M18.0003 17.5L14.262 13.755M16.3337 8.75002C16.3337 10.6286 15.5874 12.4303 14.259 13.7587C12.9306 15.0871 11.1289 15.8334 9.25033 15.8334C7.37171 15.8334 5.57004 15.0871 4.24165 13.7587C2.91327 12.4303 2.16699 10.6286 2.16699 8.75002C2.16699 6.8714 2.91327 5.06973 4.24165 3.74135C5.57004 2.41296 7.37171 1.66669 9.25033 1.66669C11.1289 1.66669 12.9306 2.41296 14.259 3.74135C15.5874 5.06973 16.3337 6.8714 16.3337 8.75002Z" stroke="black" stroke-width="1.66667" stroke-linecap="round"/>
<path d="M9.25 5.00861V8.76277L11.7467 11.2595" stroke="black" stroke-width="1.66667" stroke-linecap="round" stroke-linejoin="round"/>
</svg>
