<svg width="24" height="24" viewBox="0 0 24 24" fill="none" xmlns="http://www.w3.org/2000/svg">
<path d="M15 7.8999L7 7.8999" stroke="black" stroke-width="1.25" stroke-miterlimit="10" stroke-linecap="round" stroke-linejoin="round"/>
<path d="M15 10.8999L7 10.8999" stroke="black" stroke-width="1.25" stroke-miterlimit="10" stroke-linecap="round" stroke-linejoin="round"/>
<path d="M13 13.8999L7 13.8999" stroke="black" stroke-width="1.25" stroke-miterlimit="10" stroke-linecap="round" stroke-linejoin="round"/>
<path d="M14.36 18.8999H7C4.79 18.8999 3 17.1099 3 14.8999V6.8999C3 4.6899 4.79 2.8999 7 2.8999H15C17.21 2.8999 19 4.6899 19 6.8999V12.4399" stroke="black" stroke-width="1.25" stroke-miterlimit="10" stroke-linecap="round" stroke-linejoin="round"/>
<path d="M15.88 15.8999L16.62 16.6499L18.12 15.1499" stroke="black" stroke-width="1.25" stroke-miterlimit="10" stroke-linecap="round" stroke-linejoin="round"/>
<path d="M17 19.8999C19.2091 19.8999 21 18.109 21 15.8999C21 13.6908 19.2091 11.8999 17 11.8999C14.7909 11.8999 13 13.6908 13 15.8999C13 18.109 14.7909 19.8999 17 19.8999Z" stroke="black" stroke-width="1.25" stroke-miterlimit="10" stroke-linecap="round" stroke-linejoin="round"/>
</svg>
