<svg width="19" height="22" viewBox="0 0 19 22" fill="none" xmlns="http://www.w3.org/2000/svg">
<path d="M7.04297 16.8423C6.88802 16.8423 6.76351 16.798 6.66943 16.7095C6.57536 16.6209 6.52555 16.502 6.52002 16.3525L6.271 7.479C6.26546 7.33512 6.30973 7.21891 6.40381 7.13037C6.50342 7.0363 6.6307 6.98926 6.78564 6.98926C6.93506 6.98926 7.0568 7.03353 7.15088 7.12207C7.25049 7.21061 7.30029 7.32682 7.30029 7.4707L7.55762 16.3525C7.55762 16.4964 7.51058 16.6154 7.4165 16.7095C7.32243 16.798 7.19792 16.8423 7.04297 16.8423ZM9.5 16.8423C9.34505 16.8423 9.21777 16.798 9.11816 16.7095C9.01855 16.6154 8.96875 16.4964 8.96875 16.3525V7.479C8.96875 7.33512 9.01855 7.21891 9.11816 7.13037C9.21777 7.0363 9.34505 6.98926 9.5 6.98926C9.66048 6.98926 9.79053 7.0363 9.89014 7.13037C9.98975 7.21891 10.0396 7.33512 10.0396 7.479V16.3525C10.0396 16.4964 9.98975 16.6154 9.89014 16.7095C9.79053 16.798 9.66048 16.8423 9.5 16.8423ZM11.9653 16.8423C11.8049 16.8423 11.6776 16.798 11.5835 16.7095C11.4894 16.6154 11.4451 16.4964 11.4507 16.3525L11.6997 7.479C11.7052 7.32959 11.755 7.21061 11.8491 7.12207C11.9432 7.03353 12.0649 6.98926 12.2144 6.98926C12.3748 6.98926 12.5021 7.0363 12.5962 7.13037C12.6903 7.21891 12.7345 7.33512 12.729 7.479L12.48 16.3525C12.4744 16.502 12.4246 16.6209 12.3306 16.7095C12.2365 16.798 12.1147 16.8423 11.9653 16.8423ZM5.85596 4.82275V2.96338C5.85596 2.36572 6.03857 1.89535 6.40381 1.55225C6.77458 1.20361 7.27816 1.0293 7.91455 1.0293H11.0688C11.7052 1.0293 12.2061 1.20361 12.5713 1.55225C12.9421 1.89535 13.1274 2.36572 13.1274 2.96338V4.82275H11.8076V3.04639C11.8076 2.81396 11.7301 2.62581 11.5752 2.48193C11.4258 2.33805 11.2266 2.26611 10.9775 2.26611H8.00586C7.75684 2.26611 7.55485 2.33805 7.3999 2.48193C7.25049 2.62581 7.17578 2.81396 7.17578 3.04639V4.82275H5.85596ZM2.0874 5.48682C1.92139 5.48682 1.77474 5.42594 1.64746 5.3042C1.52572 5.17692 1.46484 5.02751 1.46484 4.85596C1.46484 4.68994 1.52572 4.54606 1.64746 4.42432C1.77474 4.29704 1.92139 4.2334 2.0874 4.2334H16.9209C17.0869 4.2334 17.2308 4.29427 17.3525 4.41602C17.4743 4.53776 17.5352 4.68441 17.5352 4.85596C17.5352 5.02751 17.4743 5.17692 17.3525 5.3042C17.2363 5.42594 17.0924 5.48682 16.9209 5.48682H2.0874ZM5.69824 19.5151C5.10059 19.5151 4.61637 19.3381 4.24561 18.9839C3.88037 18.6353 3.68392 18.1621 3.65625 17.5645L3.06689 5.3291H4.37012L4.95947 17.415C4.97054 17.6585 5.05632 17.8605 5.2168 18.021C5.37728 18.1815 5.5765 18.2617 5.81445 18.2617H13.1772C13.4207 18.2617 13.6227 18.1815 13.7832 18.021C13.9437 17.866 14.0295 17.6641 14.0405 17.415L14.5967 5.3291H15.9331L15.3521 17.5562C15.3244 18.1538 15.1252 18.6297 14.7544 18.9839C14.3836 19.3381 13.9022 19.5151 13.3101 19.5151H5.69824Z" fill="#FF3B30"/>
</svg>
