<svg width="121" height="24" viewBox="0 0 121 24" fill="none" xmlns="http://www.w3.org/2000/svg">
<rect width="121" height="24" rx="12" fill="#87BC45"/>
<g clip-path="url(#clip0_4930_83719)">
<path d="M21.0602 9.05331L16.6668 13.4466L14.2735 11.06L13.3335 12L16.6668 15.3333L22.0002 9.99998L21.0602 9.05331ZM18.0002 5.33331C14.3202 5.33331 11.3335 8.31998 11.3335 12C11.3335 15.68 14.3202 18.6666 18.0002 18.6666C21.6802 18.6666 24.6668 15.68 24.6668 12C24.6668 8.31998 21.6802 5.33331 18.0002 5.33331ZM18.0002 17.3333C15.0535 17.3333 12.6668 14.9466 12.6668 12C12.6668 9.05331 15.0535 6.66665 18.0002 6.66665C20.9468 6.66665 23.3335 9.05331 23.3335 12C23.3335 14.9466 20.9468 17.3333 18.0002 17.3333Z" fill="white"/>
</g>
<path d="M40.0179 10.1293H38.4667C38.4071 9.79782 38.296 9.50615 38.1336 9.25426C37.9712 9.00237 37.7724 8.78859 37.537 8.61293C37.3017 8.43726 37.0382 8.30469 36.7466 8.2152C36.4582 8.12571 36.1516 8.08097 35.8268 8.08097C35.2402 8.08097 34.7148 8.22846 34.2508 8.52344C33.7901 8.81842 33.4255 9.25095 33.1571 9.82102C32.8919 10.3911 32.7593 11.0871 32.7593 11.9091C32.7593 12.7377 32.8919 13.437 33.1571 14.0071C33.4255 14.5772 33.7918 15.008 34.2558 15.2997C34.7198 15.5914 35.2418 15.7372 35.8218 15.7372C36.1433 15.7372 36.4483 15.6941 36.7366 15.608C37.0283 15.5185 37.2918 15.3875 37.5271 15.2152C37.7624 15.0429 37.9613 14.8324 38.1237 14.5838C38.2894 14.3319 38.4038 14.0436 38.4667 13.7188L40.0179 13.7237C39.935 14.2242 39.7743 14.6849 39.5356 15.1058C39.3003 15.5234 38.997 15.8847 38.6258 16.1896C38.2579 16.4912 37.837 16.7249 37.363 16.8906C36.8891 17.0563 36.372 17.1392 35.8119 17.1392C34.9303 17.1392 34.1448 16.9304 33.4554 16.5128C32.766 16.0919 32.2224 15.4903 31.8247 14.7081C31.4303 13.9259 31.2331 12.9929 31.2331 11.9091C31.2331 10.822 31.4319 9.88897 31.8297 9.11008C32.2274 8.32789 32.7709 7.72798 33.4603 7.31037C34.1497 6.88944 34.9336 6.67898 35.8119 6.67898C36.3521 6.67898 36.8559 6.75687 37.3233 6.91264C37.7939 7.0651 38.2165 7.29048 38.591 7.58878C38.9655 7.88376 39.2754 8.24503 39.5207 8.67258C39.766 9.09683 39.9317 9.58239 40.0179 10.1293ZM45.0534 17.1541C44.3375 17.1541 43.7127 16.9901 43.1791 16.6619C42.6455 16.3338 42.2312 15.8748 41.9362 15.2848C41.6412 14.6948 41.4937 14.0054 41.4937 13.2166C41.4937 12.4245 41.6412 11.7318 41.9362 11.1385C42.2312 10.5452 42.6455 10.0845 43.1791 9.75639C43.7127 9.42827 44.3375 9.2642 45.0534 9.2642C45.7693 9.2642 46.3941 9.42827 46.9277 9.75639C47.4613 10.0845 47.8756 10.5452 48.1706 11.1385C48.4656 11.7318 48.6131 12.4245 48.6131 13.2166C48.6131 14.0054 48.4656 14.6948 48.1706 15.2848C47.8756 15.8748 47.4613 16.3338 46.9277 16.6619C46.3941 16.9901 45.7693 17.1541 45.0534 17.1541ZM45.0584 15.9062C45.5224 15.9062 45.9069 15.7836 46.2118 15.5384C46.5167 15.2931 46.7421 14.9666 46.8879 14.5589C47.0371 14.1513 47.1116 13.7022 47.1116 13.2116C47.1116 12.7244 47.0371 12.277 46.8879 11.8693C46.7421 11.4583 46.5167 11.1286 46.2118 10.88C45.9069 10.6314 45.5224 10.5071 45.0584 10.5071C44.5911 10.5071 44.2033 10.6314 43.895 10.88C43.5901 11.1286 43.3631 11.4583 43.2139 11.8693C43.0681 12.277 42.9952 12.7244 42.9952 13.2116C42.9952 13.7022 43.0681 14.1513 43.2139 14.5589C43.3631 14.9666 43.5901 15.2931 43.895 15.5384C44.2033 15.7836 44.5911 15.9062 45.0584 15.9062ZM50.3723 17V9.36364H51.7992V10.6065H51.8936C52.0527 10.1856 52.3129 9.85748 52.6742 9.62216C53.0355 9.38352 53.468 9.2642 53.9718 9.2642C54.4822 9.2642 54.9097 9.38352 55.2544 9.62216C55.6025 9.8608 55.8593 10.1889 56.025 10.6065H56.1046C56.2869 10.1989 56.5769 9.87405 56.9746 9.6321C57.3723 9.38684 57.8463 9.2642 58.3965 9.2642C59.0892 9.2642 59.6543 9.4813 60.0918 9.91548C60.5326 10.3497 60.753 11.0043 60.753 11.8793V17H59.2665V12.0185C59.2665 11.5014 59.1257 11.1269 58.8439 10.8949C58.5622 10.6629 58.2258 10.5469 57.8347 10.5469C57.3508 10.5469 56.9746 10.696 56.7061 10.9943C56.4377 11.2893 56.3034 11.6688 56.3034 12.1328V17H54.8219V11.924C54.8219 11.5097 54.6926 11.1766 54.4341 10.9247C54.1756 10.6728 53.8392 10.5469 53.4249 10.5469C53.1432 10.5469 52.883 10.6214 52.6444 10.7706C52.409 10.9164 52.2185 11.1203 52.0726 11.3821C51.9301 11.6439 51.8588 11.9472 51.8588 12.2919V17H50.3723ZM62.8454 19.8636V9.36364H64.2971V10.6016H64.4214C64.5076 10.4425 64.6318 10.2585 64.7942 10.0497C64.9567 9.84091 65.182 9.65862 65.4704 9.50284C65.7587 9.34375 66.1399 9.2642 66.6138 9.2642C67.2303 9.2642 67.7805 9.41998 68.2644 9.73153C68.7483 10.0431 69.1278 10.4922 69.4029 11.0788C69.6813 11.6655 69.8205 12.3714 69.8205 13.1967C69.8205 14.022 69.683 14.7296 69.4079 15.3196C69.1328 15.9062 68.7549 16.3587 68.2744 16.6768C67.7938 16.9917 67.2452 17.1491 66.6288 17.1491C66.1647 17.1491 65.7852 17.0713 65.4903 16.9155C65.1986 16.7597 64.9699 16.5774 64.8042 16.3686C64.6385 16.1598 64.5109 15.9742 64.4214 15.8118H64.3319V19.8636H62.8454ZM64.3021 13.1818C64.3021 13.7187 64.3799 14.1894 64.5357 14.5938C64.6915 14.9981 64.9169 15.3146 65.2119 15.5433C65.5068 15.7687 65.8681 15.8814 66.2957 15.8814C66.7398 15.8814 67.111 15.7637 67.4093 15.5284C67.7076 15.2898 67.933 14.9666 68.0854 14.5589C68.2412 14.1513 68.3191 13.6922 68.3191 13.1818C68.3191 12.678 68.2429 12.2256 68.0904 11.8246C67.9413 11.4235 67.7159 11.107 67.4143 10.875C67.116 10.643 66.7431 10.527 66.2957 10.527C65.8648 10.527 65.5002 10.638 65.2019 10.8601C64.9069 11.0821 64.6832 11.392 64.5308 11.7898C64.3783 12.1875 64.3021 12.6515 64.3021 13.1818ZM73.0725 6.81818V17H71.586V6.81818H73.0725ZM75.1723 17V9.36364H76.6588V17H75.1723ZM75.923 8.18537C75.6645 8.18537 75.4425 8.09919 75.2569 7.92685C75.0746 7.75118 74.9834 7.54238 74.9834 7.30043C74.9834 7.05516 75.0746 6.84635 75.2569 6.67401C75.4425 6.49834 75.6645 6.41051 75.923 6.41051C76.1816 6.41051 76.402 6.49834 76.5843 6.67401C76.7699 6.84635 76.8627 7.05516 76.8627 7.30043C76.8627 7.54238 76.7699 7.75118 76.5843 7.92685C76.402 8.09919 76.1816 8.18537 75.923 8.18537ZM80.981 17.169C80.4971 17.169 80.0596 17.0795 79.6685 16.9006C79.2774 16.7183 78.9675 16.4548 78.7388 16.1101C78.5134 15.7654 78.4007 15.3428 78.4007 14.8423C78.4007 14.4115 78.4836 14.0568 78.6493 13.7784C78.815 13.5 79.0387 13.2796 79.3205 13.1172C79.6022 12.9548 79.917 12.8321 80.2651 12.7493C80.6131 12.6664 80.9677 12.6035 81.329 12.5604C81.7864 12.5073 82.1576 12.4643 82.4426 12.4311C82.7276 12.3946 82.9348 12.3366 83.0641 12.2571C83.1933 12.1776 83.258 12.0483 83.258 11.8693V11.8345C83.258 11.4003 83.1353 11.0639 82.8901 10.8253C82.6481 10.5866 82.2868 10.4673 81.8062 10.4673C81.3058 10.4673 80.9114 10.5784 80.623 10.8004C80.338 11.0192 80.1408 11.2628 80.0314 11.5312L78.6344 11.2131C78.8001 10.7491 79.042 10.3745 79.3602 10.0895C79.6817 9.80114 80.0513 9.59233 80.4689 9.46307C80.8865 9.33049 81.3257 9.2642 81.7864 9.2642C82.0913 9.2642 82.4144 9.30066 82.7558 9.37358C83.1005 9.44318 83.422 9.57244 83.7203 9.76136C84.0219 9.95028 84.2688 10.2204 84.4611 10.5717C84.6533 10.9197 84.7494 11.3722 84.7494 11.929V17H83.2977V15.956H83.2381C83.1419 16.1482 82.9978 16.3371 82.8055 16.5227C82.6133 16.7083 82.3664 16.8625 82.0648 16.9851C81.7632 17.1077 81.4019 17.169 80.981 17.169ZM81.3041 15.9759C81.7151 15.9759 82.0664 15.8946 82.3581 15.7322C82.6531 15.5698 82.8768 15.3577 83.0293 15.0959C83.185 14.8307 83.2629 14.5473 83.2629 14.2457V13.2614C83.2099 13.3144 83.1071 13.3641 82.9547 13.4105C82.8055 13.4536 82.6348 13.4917 82.4426 13.5249C82.2504 13.5547 82.0631 13.5829 81.8808 13.6094C81.6985 13.6326 81.5461 13.6525 81.4234 13.669C81.1351 13.7055 80.8716 13.7668 80.633 13.853C80.3976 13.9392 80.2087 14.0634 80.0662 14.2259C79.927 14.3849 79.8574 14.5971 79.8574 14.8622C79.8574 15.2301 79.9933 15.5085 80.2651 15.6974C80.5368 15.883 80.8832 15.9759 81.3041 15.9759ZM88.3159 12.4659V17H86.8294V9.36364H88.2562V10.6065H88.3507C88.5263 10.2022 88.8014 9.87737 89.176 9.6321C89.5538 9.38684 90.0294 9.2642 90.6028 9.2642C91.1232 9.2642 91.5789 9.37358 91.97 9.59233C92.3611 9.80777 92.6644 10.1293 92.8798 10.5568C93.0952 10.9844 93.2029 11.513 93.2029 12.1428V17H91.7164V12.3217C91.7164 11.7682 91.5723 11.3357 91.2839 11.0241C90.9956 10.7093 90.5995 10.5518 90.0957 10.5518C89.751 10.5518 89.4444 10.6264 89.176 10.7756C88.9108 10.9247 88.7003 11.1435 88.5446 11.4318C88.3921 11.7169 88.3159 12.0616 88.3159 12.4659ZM98.5132 17.1541C97.7741 17.1541 97.1377 16.9867 96.6041 16.652C96.0738 16.3139 95.6661 15.8482 95.3811 15.255C95.096 14.6617 94.9535 13.9822 94.9535 13.2166C94.9535 12.4411 95.0993 11.7566 95.391 11.1634C95.6827 10.5668 96.0937 10.1011 96.624 9.76633C97.1543 9.43158 97.779 9.2642 98.4983 9.2642C99.0783 9.2642 99.5953 9.37192 100.049 9.58736C100.503 9.79948 100.87 10.0978 101.148 10.4822C101.43 10.8667 101.597 11.3158 101.65 11.8295H100.204C100.124 11.4716 99.9417 11.1634 99.6566 10.9048C99.3749 10.6463 98.9971 10.517 98.5231 10.517C98.1088 10.517 97.7459 10.6264 97.4343 10.8452C97.1261 11.0606 96.8858 11.3688 96.7135 11.7699C96.5411 12.1676 96.4549 12.6383 96.4549 13.1818C96.4549 13.7386 96.5395 14.2192 96.7085 14.6236C96.8775 15.0279 97.1162 15.3411 97.4244 15.5632C97.7359 15.7853 98.1022 15.8963 98.5231 15.8963C98.8048 15.8963 99.06 15.8449 99.2887 15.7422C99.5207 15.6361 99.7146 15.4853 99.8704 15.2898C100.03 15.0942 100.141 14.8589 100.204 14.5838H101.65C101.597 15.0777 101.436 15.5185 101.168 15.9062C100.9 16.294 100.54 16.599 100.089 16.821C99.6417 17.0431 99.1164 17.1541 98.5132 17.1541ZM106.631 17.1541C105.879 17.1541 105.231 16.9934 104.687 16.6719C104.147 16.3471 103.729 15.8913 103.434 15.3047C103.143 14.7147 102.997 14.0237 102.997 13.2315C102.997 12.4493 103.143 11.7599 103.434 11.1634C103.729 10.5668 104.14 10.1011 104.667 9.76633C105.198 9.43158 105.817 9.2642 106.527 9.2642C106.958 9.2642 107.375 9.33546 107.78 9.47798C108.184 9.6205 108.547 9.84422 108.868 10.1491C109.19 10.4541 109.443 10.8501 109.629 11.3374C109.815 11.8213 109.907 12.4096 109.907 13.1023V13.6293H103.837V12.5156H108.451C108.451 12.1245 108.371 11.7782 108.212 11.4766C108.053 11.1716 107.829 10.9313 107.541 10.7557C107.256 10.58 106.921 10.4922 106.537 10.4922C106.119 10.4922 105.754 10.5949 105.443 10.8004C105.135 11.0026 104.896 11.2678 104.727 11.5959C104.561 11.9207 104.478 12.2737 104.478 12.6548V13.5249C104.478 14.0353 104.568 14.4695 104.747 14.8274C104.929 15.1854 105.183 15.4588 105.508 15.6477C105.832 15.8333 106.212 15.9261 106.646 15.9261C106.928 15.9261 107.185 15.8864 107.417 15.8068C107.649 15.724 107.849 15.6013 108.018 15.4389C108.187 15.2765 108.316 15.076 108.406 14.8374L109.813 15.0909C109.7 15.5052 109.498 15.8681 109.206 16.1797C108.918 16.4879 108.555 16.7282 108.118 16.9006C107.683 17.0696 107.188 17.1541 106.631 17.1541Z" fill="white"/>
<defs>
<clipPath id="clip0_4930_83719">
<rect width="16" height="16" fill="white" transform="translate(10 4)"/>
</clipPath>
</defs>
</svg>
