<svg width="145" height="24" viewBox="0 0 145 24" fill="none" xmlns="http://www.w3.org/2000/svg">
<rect width="145" height="24" rx="12" fill="#FF7B29"/>
<g clip-path="url(#clip0_4930_83761)">
<path d="M21.0602 9.05331L16.6668 13.4466L14.2735 11.06L13.3335 12L16.6668 15.3333L22.0002 9.99998L21.0602 9.05331ZM18.0002 5.33331C14.3202 5.33331 11.3335 8.31998 11.3335 12C11.3335 15.68 14.3202 18.6666 18.0002 18.6666C21.6802 18.6666 24.6668 15.68 24.6668 12C24.6668 8.31998 21.6802 5.33331 18.0002 5.33331ZM18.0002 17.3333C15.0535 17.3333 12.6668 14.9466 12.6668 12C12.6668 9.05331 15.0535 6.66665 18.0002 6.66665C20.9468 6.66665 23.3335 9.05331 23.3335 12C23.3335 14.9466 20.9468 17.3333 18.0002 17.3333Z" fill="white"/>
</g>
<path d="M31.5534 17V6.81818H33.0896V15.6776H37.7032V17H31.5534ZM42.653 17.1541C41.9371 17.1541 41.3123 16.9901 40.7787 16.6619C40.2451 16.3338 39.8308 15.8748 39.5358 15.2848C39.2408 14.6948 39.0934 14.0054 39.0934 13.2166C39.0934 12.4245 39.2408 11.7318 39.5358 11.1385C39.8308 10.5452 40.2451 10.0845 40.7787 9.75639C41.3123 9.42827 41.9371 9.2642 42.653 9.2642C43.3689 9.2642 43.9937 9.42827 44.5273 9.75639C45.0609 10.0845 45.4752 10.5452 45.7702 11.1385C46.0652 11.7318 46.2127 12.4245 46.2127 13.2166C46.2127 14.0054 46.0652 14.6948 45.7702 15.2848C45.4752 15.8748 45.0609 16.3338 44.5273 16.6619C43.9937 16.9901 43.3689 17.1541 42.653 17.1541ZM42.658 15.9062C43.122 15.9062 43.5065 15.7836 43.8114 15.5384C44.1163 15.2931 44.3417 14.9666 44.4875 14.5589C44.6367 14.1513 44.7113 13.7022 44.7113 13.2116C44.7113 12.7244 44.6367 12.277 44.4875 11.8693C44.3417 11.4583 44.1163 11.1286 43.8114 10.88C43.5065 10.6314 43.122 10.5071 42.658 10.5071C42.1907 10.5071 41.8029 10.6314 41.4946 10.88C41.1897 11.1286 40.9627 11.4583 40.8135 11.8693C40.6677 12.277 40.5948 12.7244 40.5948 13.2116C40.5948 13.7022 40.6677 14.1513 40.8135 14.5589C40.9627 14.9666 41.1897 15.2931 41.4946 15.5384C41.8029 15.7836 42.1907 15.9062 42.658 15.9062ZM49.3951 17L47.1479 9.36364H48.6841L50.1806 14.9716H50.2551L51.7566 9.36364H53.2928L54.7843 14.9467H54.8588L56.3453 9.36364H57.8816L55.6394 17H54.123L52.5719 11.4865H52.4576L50.9064 17H49.3951ZM68.9196 11.228L67.5723 11.4666C67.516 11.2943 67.4265 11.1302 67.3039 10.9744C67.1845 10.8187 67.0221 10.6911 66.8167 10.5916C66.6112 10.4922 66.3543 10.4425 66.0461 10.4425C65.6251 10.4425 65.2738 10.5369 64.9921 10.7259C64.7104 10.9115 64.5695 11.1518 64.5695 11.4467C64.5695 11.7019 64.664 11.9074 64.8529 12.0632C65.0418 12.219 65.3467 12.3466 65.7676 12.446L66.9807 12.7244C67.6834 12.8868 68.207 13.1371 68.5517 13.4751C68.8964 13.8132 69.0688 14.2524 69.0688 14.7926C69.0688 15.25 68.9362 15.6577 68.6711 16.0156C68.4092 16.3703 68.043 16.6487 67.5723 16.8509C67.105 17.053 66.5631 17.1541 65.9466 17.1541C65.0915 17.1541 64.3938 16.9718 63.8536 16.6072C63.3133 16.2393 62.9819 15.7173 62.8593 15.0412L64.2961 14.8224C64.3855 15.197 64.5695 15.4804 64.8479 15.6726C65.1263 15.8615 65.4892 15.956 65.9367 15.956C66.4239 15.956 66.8133 15.8549 67.105 15.6527C67.3967 15.4472 67.5425 15.197 67.5425 14.902C67.5425 14.6634 67.453 14.4628 67.274 14.3004C67.0984 14.138 66.8283 14.0154 66.4637 13.9325L65.1711 13.6491C64.4585 13.4867 63.9315 13.2282 63.5901 12.8736C63.252 12.5189 63.083 12.0698 63.083 11.5263C63.083 11.0755 63.2089 10.6811 63.4608 10.343C63.7127 10.005 64.0607 9.74148 64.5049 9.55256C64.949 9.36032 65.4578 9.2642 66.0311 9.2642C66.8564 9.2642 67.506 9.44318 67.98 9.80114C68.454 10.1558 68.7672 10.6314 68.9196 11.228ZM74.3678 9.36364V10.5568H70.1967V9.36364H74.3678ZM71.3153 7.53409H72.8018V14.7578C72.8018 15.0462 72.8449 15.2633 72.931 15.4091C73.0172 15.5516 73.1282 15.6494 73.2641 15.7024C73.4033 15.7521 73.5541 15.777 73.7165 15.777C73.8359 15.777 73.9403 15.7687 74.0298 15.7521C74.1192 15.7356 74.1888 15.7223 74.2386 15.7124L74.507 16.9403C74.4209 16.9735 74.2982 17.0066 74.1391 17.0398C73.98 17.0762 73.7812 17.0961 73.5425 17.0994C73.1514 17.1061 72.7869 17.0365 72.4488 16.8906C72.1107 16.7448 71.8373 16.5194 71.6285 16.2145C71.4197 15.9096 71.3153 15.5268 71.3153 15.0661V7.53409ZM79.2468 17.1541C78.5309 17.1541 77.9061 16.9901 77.3725 16.6619C76.8389 16.3338 76.4246 15.8748 76.1296 15.2848C75.8346 14.6948 75.6871 14.0054 75.6871 13.2166C75.6871 12.4245 75.8346 11.7318 76.1296 11.1385C76.4246 10.5452 76.8389 10.0845 77.3725 9.75639C77.9061 9.42827 78.5309 9.2642 79.2468 9.2642C79.9627 9.2642 80.5874 9.42827 81.1211 9.75639C81.6547 10.0845 82.069 10.5452 82.364 11.1385C82.6589 11.7318 82.8064 12.4245 82.8064 13.2166C82.8064 14.0054 82.6589 14.6948 82.364 15.2848C82.069 15.8748 81.6547 16.3338 81.1211 16.6619C80.5874 16.9901 79.9627 17.1541 79.2468 17.1541ZM79.2517 15.9062C79.7158 15.9062 80.1002 15.7836 80.4051 15.5384C80.7101 15.2931 80.9355 14.9666 81.0813 14.5589C81.2304 14.1513 81.305 13.7022 81.305 13.2116C81.305 12.7244 81.2304 12.277 81.0813 11.8693C80.9355 11.4583 80.7101 11.1286 80.4051 10.88C80.1002 10.6314 79.7158 10.5071 79.2517 10.5071C78.7844 10.5071 78.3966 10.6314 78.0884 10.88C77.7835 11.1286 77.5564 11.4583 77.4073 11.8693C77.2614 12.277 77.1885 12.7244 77.1885 13.2116C77.1885 13.7022 77.2614 14.1513 77.4073 14.5589C77.5564 14.9666 77.7835 15.2931 78.0884 15.5384C78.3966 15.7836 78.7844 15.9062 79.2517 15.9062ZM87.7823 17.1541C87.0432 17.1541 86.4068 16.9867 85.8732 16.652C85.3429 16.3139 84.9353 15.8482 84.6502 15.255C84.3652 14.6617 84.2227 13.9822 84.2227 13.2166C84.2227 12.4411 84.3685 11.7566 84.6602 11.1634C84.9518 10.5668 85.3628 10.1011 85.8931 9.76633C86.4234 9.43158 87.0482 9.2642 87.7674 9.2642C88.3474 9.2642 88.8645 9.37192 89.3185 9.58736C89.7726 9.79948 90.1388 10.0978 90.4173 10.4822C90.699 10.8667 90.8664 11.3158 90.9194 11.8295H89.4727C89.3931 11.4716 89.2108 11.1634 88.9258 10.9048C88.6441 10.6463 88.2662 10.517 87.7923 10.517C87.378 10.517 87.015 10.6264 86.7035 10.8452C86.3952 11.0606 86.1549 11.3688 85.9826 11.7699C85.8103 12.1676 85.7241 12.6383 85.7241 13.1818C85.7241 13.7386 85.8086 14.2192 85.9776 14.6236C86.1467 15.0279 86.3853 15.3411 86.6935 15.5632C87.0051 15.7853 87.3713 15.8963 87.7923 15.8963C88.074 15.8963 88.3292 15.8449 88.5579 15.7422C88.7899 15.6361 88.9838 15.4853 89.1396 15.2898C89.2987 15.0942 89.4097 14.8589 89.4727 14.5838H90.9194C90.8664 15.0777 90.7056 15.5185 90.4371 15.9062C90.1687 16.294 89.8091 16.599 89.3583 16.821C88.9109 17.0431 88.3855 17.1541 87.7823 17.1541ZM93.9762 14.4098L93.9663 12.5952H94.2248L97.2674 9.36364H99.0473L95.5771 13.0426H95.3434L93.9762 14.4098ZM92.6091 17V6.81818H94.0956V17H92.6091ZM97.4315 17L94.6971 13.3707L95.7213 12.3317L99.2561 17H97.4315ZM105.794 6.81818V17H104.307V6.81818H105.794ZM111.185 17.1541C110.432 17.1541 109.784 16.9934 109.241 16.6719C108.7 16.3471 108.283 15.8913 107.988 15.3047C107.696 14.7147 107.55 14.0237 107.55 13.2315C107.55 12.4493 107.696 11.7599 107.988 11.1634C108.283 10.5668 108.694 10.1011 109.221 9.76633C109.751 9.43158 110.371 9.2642 111.08 9.2642C111.511 9.2642 111.929 9.33546 112.333 9.47798C112.737 9.6205 113.1 9.84422 113.422 10.1491C113.743 10.4541 113.997 10.8501 114.182 11.3374C114.368 11.8213 114.461 12.4096 114.461 13.1023V13.6293H108.391V12.5156H113.004C113.004 12.1245 112.925 11.7782 112.766 11.4766C112.606 11.1716 112.383 10.9313 112.094 10.7557C111.809 10.58 111.475 10.4922 111.09 10.4922C110.673 10.4922 110.308 10.5949 109.996 10.8004C109.688 11.0026 109.45 11.2678 109.28 11.5959C109.115 11.9207 109.032 12.2737 109.032 12.6548V13.5249C109.032 14.0353 109.121 14.4695 109.3 14.8274C109.483 15.1854 109.736 15.4588 110.061 15.6477C110.386 15.8333 110.765 15.9261 111.2 15.9261C111.481 15.9261 111.738 15.8864 111.97 15.8068C112.202 15.724 112.403 15.6013 112.572 15.4389C112.741 15.2765 112.87 15.076 112.959 14.8374L114.366 15.0909C114.254 15.5052 114.052 15.8681 113.76 16.1797C113.472 16.4879 113.109 16.7282 112.671 16.9006C112.237 17.0696 111.741 17.1541 111.185 17.1541ZM122.524 9.36364L119.755 17H118.164L115.39 9.36364H116.986L118.92 15.2401H118.999L120.928 9.36364H122.524ZM127.053 17.1541C126.3 17.1541 125.652 16.9934 125.109 16.6719C124.568 16.3471 124.151 15.8913 123.856 15.3047C123.564 14.7147 123.418 14.0237 123.418 13.2315C123.418 12.4493 123.564 11.7599 123.856 11.1634C124.151 10.5668 124.562 10.1011 125.089 9.76633C125.619 9.43158 126.239 9.2642 126.948 9.2642C127.379 9.2642 127.797 9.33546 128.201 9.47798C128.605 9.6205 128.968 9.84422 129.29 10.1491C129.611 10.4541 129.865 10.8501 130.05 11.3374C130.236 11.8213 130.329 12.4096 130.329 13.1023V13.6293H124.259V12.5156H128.872C128.872 12.1245 128.793 11.7782 128.634 11.4766C128.474 11.1716 128.251 10.9313 127.962 10.7557C127.677 10.58 127.343 10.4922 126.958 10.4922C126.541 10.4922 126.176 10.5949 125.864 10.8004C125.556 11.0026 125.318 11.2678 125.148 11.5959C124.983 11.9207 124.9 12.2737 124.9 12.6548V13.5249C124.9 14.0353 124.989 14.4695 125.168 14.8274C125.351 15.1854 125.604 15.4588 125.929 15.6477C126.254 15.8333 126.633 15.9261 127.068 15.9261C127.349 15.9261 127.606 15.8864 127.838 15.8068C128.07 15.724 128.271 15.6013 128.44 15.4389C128.609 15.2765 128.738 15.076 128.827 14.8374L130.234 15.0909C130.122 15.5052 129.92 15.8681 129.628 16.1797C129.34 16.4879 128.977 16.7282 128.539 16.9006C128.105 17.0696 127.609 17.1541 127.053 17.1541ZM133.565 6.81818V17H132.078V6.81818H133.565Z" fill="white"/>
<defs>
<clipPath id="clip0_4930_83761">
<rect width="16" height="16" fill="white" transform="translate(10 4)"/>
</clipPath>
</defs>
</svg>
