<svg width="100" height="24" viewBox="0 0 100 24" fill="none" xmlns="http://www.w3.org/2000/svg">
<rect width="100" height="24" rx="12" fill="#E00606"/>
<g clip-path="url(#clip0_4930_83717)">
<path d="M17.3335 14H18.6668V15.3333H17.3335V14ZM17.3335 8.66665H18.6668V12.6666H17.3335V8.66665ZM17.9935 5.33331C14.3135 5.33331 11.3335 8.31998 11.3335 12C11.3335 15.68 14.3135 18.6666 17.9935 18.6666C21.6802 18.6666 24.6668 15.68 24.6668 12C24.6668 8.31998 21.6802 5.33331 17.9935 5.33331ZM18.0002 17.3333C15.0535 17.3333 12.6668 14.9466 12.6668 12C12.6668 9.05331 15.0535 6.66665 18.0002 6.66665C20.9468 6.66665 23.3335 9.05331 23.3335 12C23.3335 14.9466 20.9468 17.3333 18.0002 17.3333Z" fill="white"/>
</g>
<path d="M32.2687 6.81818L35.1025 15.1108H35.2168L38.0506 6.81818H39.7112L36.0471 17H34.2722L30.6082 6.81818H32.2687ZM41.1622 17V9.36364H42.6487V17H41.1622ZM41.9129 8.18537C41.6544 8.18537 41.4323 8.09919 41.2467 7.92685C41.0644 7.75118 40.9733 7.54238 40.9733 7.30043C40.9733 7.05516 41.0644 6.84635 41.2467 6.67401C41.4323 6.49834 41.6544 6.41051 41.9129 6.41051C42.1714 6.41051 42.3918 6.49834 42.5741 6.67401C42.7597 6.84635 42.8525 7.05516 42.8525 7.30043C42.8525 7.54238 42.7597 7.75118 42.5741 7.92685C42.3918 8.09919 42.1714 8.18537 41.9129 8.18537ZM47.9651 17.1541C47.2492 17.1541 46.6245 16.9901 46.0908 16.6619C45.5572 16.3338 45.1429 15.8748 44.8479 15.2848C44.553 14.6948 44.4055 14.0054 44.4055 13.2166C44.4055 12.4245 44.553 11.7318 44.8479 11.1385C45.1429 10.5452 45.5572 10.0845 46.0908 9.75639C46.6245 9.42827 47.2492 9.2642 47.9651 9.2642C48.681 9.2642 49.3058 9.42827 49.8394 9.75639C50.373 10.0845 50.7873 10.5452 51.0823 11.1385C51.3773 11.7318 51.5248 12.4245 51.5248 13.2166C51.5248 14.0054 51.3773 14.6948 51.0823 15.2848C50.7873 15.8748 50.373 16.3338 49.8394 16.6619C49.3058 16.9901 48.681 17.1541 47.9651 17.1541ZM47.9701 15.9062C48.4341 15.9062 48.8186 15.7836 49.1235 15.5384C49.4284 15.2931 49.6538 14.9666 49.7996 14.5589C49.9488 14.1513 50.0234 13.7022 50.0234 13.2116C50.0234 12.7244 49.9488 12.277 49.7996 11.8693C49.6538 11.4583 49.4284 11.1286 49.1235 10.88C48.8186 10.6314 48.4341 10.5071 47.9701 10.5071C47.5028 10.5071 47.115 10.6314 46.8067 10.88C46.5018 11.1286 46.2748 11.4583 46.1256 11.8693C45.9798 12.277 45.9069 12.7244 45.9069 13.2116C45.9069 13.7022 45.9798 14.1513 46.1256 14.5589C46.2748 14.9666 46.5018 15.2931 46.8067 15.5384C47.115 15.7836 47.5028 15.9062 47.9701 15.9062ZM54.7706 6.81818V17H53.2841V6.81818H54.7706ZM59.0927 17.169C58.6088 17.169 58.1713 17.0795 57.7802 16.9006C57.3891 16.7183 57.0792 16.4548 56.8505 16.1101C56.6251 15.7654 56.5124 15.3428 56.5124 14.8423C56.5124 14.4115 56.5953 14.0568 56.761 13.7784C56.9267 13.5 57.1504 13.2796 57.4322 13.1172C57.7139 12.9548 58.0288 12.8321 58.3768 12.7493C58.7248 12.6664 59.0794 12.6035 59.4407 12.5604C59.8981 12.5073 60.2693 12.4643 60.5543 12.4311C60.8394 12.3946 61.0465 12.3366 61.1758 12.2571C61.305 12.1776 61.3697 12.0483 61.3697 11.8693V11.8345C61.3697 11.4003 61.247 11.0639 61.0018 10.8253C60.7598 10.5866 60.3986 10.4673 59.918 10.4673C59.4175 10.4673 59.0231 10.5784 58.7347 10.8004C58.4497 11.0192 58.2525 11.2628 58.1431 11.5312L56.7461 11.2131C56.9118 10.7491 57.1538 10.3745 57.4719 10.0895C57.7934 9.80114 58.163 9.59233 58.5806 9.46307C58.9982 9.33049 59.4374 9.2642 59.8981 9.2642C60.203 9.2642 60.5262 9.30066 60.8675 9.37358C61.2122 9.44318 61.5337 9.57244 61.832 9.76136C62.1336 9.95028 62.3806 10.2204 62.5728 10.5717C62.765 10.9197 62.8612 11.3722 62.8612 11.929V17H61.4094V15.956H61.3498C61.2537 16.1482 61.1095 16.3371 60.9173 16.5227C60.725 16.7083 60.4781 16.8625 60.1765 16.9851C59.8749 17.1077 59.5136 17.169 59.0927 17.169ZM59.4158 15.9759C59.8268 15.9759 60.1781 15.8946 60.4698 15.7322C60.7648 15.5698 60.9885 15.3577 61.141 15.0959C61.2968 14.8307 61.3746 14.5473 61.3746 14.2457V13.2614C61.3216 13.3144 61.2189 13.3641 61.0664 13.4105C60.9173 13.4536 60.7466 13.4917 60.5543 13.5249C60.3621 13.5547 60.1748 13.5829 59.9925 13.6094C59.8103 13.6326 59.6578 13.6525 59.5352 13.669C59.2468 13.7055 58.9833 13.7668 58.7447 13.853C58.5094 13.9392 58.3204 14.0634 58.1779 14.2259C58.0387 14.3849 57.9691 14.5971 57.9691 14.8622C57.9691 15.2301 58.105 15.5085 58.3768 15.6974C58.6486 15.883 58.9949 15.9759 59.4158 15.9759ZM68.5057 9.36364V10.5568H64.3346V9.36364H68.5057ZM65.4532 7.53409H66.9397V14.7578C66.9397 15.0462 66.9828 15.2633 67.0689 15.4091C67.1551 15.5516 67.2661 15.6494 67.402 15.7024C67.5412 15.7521 67.692 15.777 67.8544 15.777C67.9738 15.777 68.0782 15.7687 68.1676 15.7521C68.2571 15.7356 68.3267 15.7223 68.3765 15.7124L68.6449 16.9403C68.5587 16.9735 68.4361 17.0066 68.277 17.0398C68.1179 17.0762 67.9191 17.0961 67.6804 17.0994C67.2893 17.1061 66.9247 17.0365 66.5867 16.8906C66.2486 16.7448 65.9752 16.5194 65.7664 16.2145C65.5576 15.9096 65.4532 15.5268 65.4532 15.0661V7.53409ZM70.2501 17V9.36364H71.7366V17H70.2501ZM71.0008 8.18537C70.7423 8.18537 70.5202 8.09919 70.3346 7.92685C70.1523 7.75118 70.0611 7.54238 70.0611 7.30043C70.0611 7.05516 70.1523 6.84635 70.3346 6.67401C70.5202 6.49834 70.7423 6.41051 71.0008 6.41051C71.2593 6.41051 71.4797 6.49834 71.662 6.67401C71.8476 6.84635 71.9404 7.05516 71.9404 7.30043C71.9404 7.54238 71.8476 7.75118 71.662 7.92685C71.4797 8.09919 71.2593 8.18537 71.0008 8.18537ZM77.053 17.1541C76.3371 17.1541 75.7123 16.9901 75.1787 16.6619C74.6451 16.3338 74.2308 15.8748 73.9358 15.2848C73.6409 14.6948 73.4934 14.0054 73.4934 13.2166C73.4934 12.4245 73.6409 11.7318 73.9358 11.1385C74.2308 10.5452 74.6451 10.0845 75.1787 9.75639C75.7123 9.42827 76.3371 9.2642 77.053 9.2642C77.7689 9.2642 78.3937 9.42827 78.9273 9.75639C79.4609 10.0845 79.8752 10.5452 80.1702 11.1385C80.4652 11.7318 80.6127 12.4245 80.6127 13.2166C80.6127 14.0054 80.4652 14.6948 80.1702 15.2848C79.8752 15.8748 79.4609 16.3338 78.9273 16.6619C78.3937 16.9901 77.7689 17.1541 77.053 17.1541ZM77.058 15.9062C77.522 15.9062 77.9065 15.7836 78.2114 15.5384C78.5163 15.2931 78.7417 14.9666 78.8875 14.5589C79.0367 14.1513 79.1113 13.7022 79.1113 13.2116C79.1113 12.7244 79.0367 12.277 78.8875 11.8693C78.7417 11.4583 78.5163 11.1286 78.2114 10.88C77.9065 10.6314 77.522 10.5071 77.058 10.5071C76.5907 10.5071 76.2029 10.6314 75.8946 10.88C75.5897 11.1286 75.3627 11.4583 75.2135 11.8693C75.0677 12.277 74.9948 12.7244 74.9948 13.2116C74.9948 13.7022 75.0677 14.1513 75.2135 14.5589C75.3627 14.9666 75.5897 15.2931 75.8946 15.5384C76.2029 15.7836 76.5907 15.9062 77.058 15.9062ZM83.8585 12.4659V17H82.3719V9.36364H83.7988V10.6065H83.8933C84.0689 10.2022 84.344 9.87737 84.7185 9.6321C85.0964 9.38684 85.572 9.2642 86.1454 9.2642C86.6657 9.2642 87.1215 9.37358 87.5126 9.59233C87.9037 9.80777 88.2069 10.1293 88.4224 10.5568C88.6378 10.9844 88.7455 11.513 88.7455 12.1428V17H87.259V12.3217C87.259 11.7682 87.1148 11.3357 86.8265 11.0241C86.5381 10.7093 86.1421 10.5518 85.6383 10.5518C85.2936 10.5518 84.987 10.6264 84.7185 10.7756C84.4534 10.9247 84.2429 11.1435 84.0871 11.4318C83.9347 11.7169 83.8585 12.0616 83.8585 12.4659Z" fill="white"/>
<defs>
<clipPath id="clip0_4930_83717">
<rect width="16" height="16" fill="white" transform="translate(10 4)"/>
</clipPath>
</defs>
</svg>
