<svg width="110" height="24" viewBox="0 0 110 24" fill="none" xmlns="http://www.w3.org/2000/svg">
<rect width="110" height="24" rx="12" fill="#9E9E9E"/>
<path d="M18.0002 5.33331C14.3185 5.33331 11.3335 8.31832 11.3335 12C11.3335 15.6816 14.3185 18.6666 18.0002 18.6666C21.6818 18.6666 24.6668 15.6816 24.6668 12C24.6668 8.31832 21.6818 5.33331 18.0002 5.33331ZM18.0002 6.44442C19.3318 6.44442 20.5557 6.91663 21.5135 7.70109L13.7013 15.5133C12.9168 14.5555 12.4446 13.3316 12.4446 12C12.4446 8.93665 14.9368 6.44442 18.0002 6.44442ZM18.0002 17.5555C16.6685 17.5555 15.4446 17.0833 14.4868 16.2989L15.0813 15.7044H15.6852V15.1005L16.1479 14.6378V16.8611H19.8524V12.2311H20.3152V15.7044H21.2413V11.3055H20.778H20.3152H19.8524H19.4802L22.299 8.48664C23.0835 9.44443 23.5557 10.6683 23.5557 12C23.5557 15.0633 21.0635 17.5555 18.0002 17.5555Z" fill="white"/>
<path d="M15.6854 12.2311H15.7815L16.7071 11.3055H16.6115H16.1482H15.6854H15.2226H14.7593V13.2533L15.6854 12.3272V12.2311Z" fill="white"/>
<path d="M17.3063 10.7061L19.7152 8.2972C19.4402 7.61887 18.7768 7.13885 18.0002 7.13885C16.9774 7.13885 16.1479 7.96885 16.1479 8.99108C16.1479 9.76718 16.6279 10.4311 17.3063 10.7061Z" fill="white"/>
<path d="M39.3673 6.81818V17H37.9554L32.78 9.53267H32.6855V17H31.1493V6.81818H32.5711L37.7515 14.2955H37.846V6.81818H39.3673ZM44.8056 17.1541C44.0896 17.1541 43.4649 16.9901 42.9313 16.6619C42.3976 16.3338 41.9834 15.8748 41.6884 15.2848C41.3934 14.6948 41.2459 14.0054 41.2459 13.2166C41.2459 12.4245 41.3934 11.7318 41.6884 11.1385C41.9834 10.5452 42.3976 10.0845 42.9313 9.75639C43.4649 9.42827 44.0896 9.2642 44.8056 9.2642C45.5215 9.2642 46.1462 9.42827 46.6798 9.75639C47.2135 10.0845 47.6278 10.5452 47.9227 11.1385C48.2177 11.7318 48.3652 12.4245 48.3652 13.2166C48.3652 14.0054 48.2177 14.6948 47.9227 15.2848C47.6278 15.8748 47.2135 16.3338 46.6798 16.6619C46.1462 16.9901 45.5215 17.1541 44.8056 17.1541ZM44.8105 15.9062C45.2745 15.9062 45.659 15.7836 45.9639 15.5384C46.2689 15.2931 46.4942 14.9666 46.6401 14.5589C46.7892 14.1513 46.8638 13.7022 46.8638 13.2116C46.8638 12.7244 46.7892 12.277 46.6401 11.8693C46.4942 11.4583 46.2689 11.1286 45.9639 10.88C45.659 10.6314 45.2745 10.5071 44.8105 10.5071C44.3432 10.5071 43.9554 10.6314 43.6472 10.88C43.3423 11.1286 43.1152 11.4583 42.9661 11.8693C42.8202 12.277 42.7473 12.7244 42.7473 13.2116C42.7473 13.7022 42.8202 14.1513 42.9661 14.5589C43.1152 14.9666 43.3423 15.2931 43.6472 15.5384C43.9554 15.7836 44.3432 15.9062 44.8105 15.9062ZM53.9296 19.8636V9.36364H55.3813V10.6016H55.5056C55.5917 10.4425 55.716 10.2585 55.8784 10.0497C56.0408 9.84091 56.2662 9.65862 56.5546 9.50284C56.8429 9.34375 57.2241 9.2642 57.698 9.2642C58.3145 9.2642 58.8647 9.41998 59.3486 9.73153C59.8325 10.0431 60.212 10.4922 60.4871 11.0788C60.7655 11.6655 60.9047 12.3714 60.9047 13.1967C60.9047 14.022 60.7672 14.7296 60.4921 15.3196C60.217 15.9062 59.8391 16.3587 59.3585 16.6768C58.878 16.9917 58.3294 17.1491 57.7129 17.1491C57.2489 17.1491 56.8694 17.0713 56.5744 16.9155C56.2828 16.7597 56.0541 16.5774 55.8884 16.3686C55.7226 16.1598 55.595 15.9742 55.5056 15.8118H55.4161V19.8636H53.9296ZM55.3862 13.1818C55.3862 13.7187 55.4641 14.1894 55.6199 14.5938C55.7757 14.9981 56.0011 15.3146 56.296 15.5433C56.591 15.7687 56.9523 15.8814 57.3798 15.8814C57.824 15.8814 58.1952 15.7637 58.4935 15.5284C58.7918 15.2898 59.0172 14.9666 59.1696 14.5589C59.3254 14.1513 59.4033 13.6922 59.4033 13.1818C59.4033 12.678 59.3271 12.2256 59.1746 11.8246C59.0254 11.4235 58.8001 11.107 58.4985 10.875C58.2002 10.643 57.8273 10.527 57.3798 10.527C56.949 10.527 56.5844 10.638 56.2861 10.8601C55.9911 11.0821 55.7674 11.392 55.6149 11.7898C55.4625 12.1875 55.3862 12.6515 55.3862 13.1818ZM65.9614 17.1541C65.209 17.1541 64.561 16.9934 64.0175 16.6719C63.4772 16.3471 63.0596 15.8913 62.7646 15.3047C62.473 14.7147 62.3271 14.0237 62.3271 13.2315C62.3271 12.4493 62.473 11.7599 62.7646 11.1634C63.0596 10.5668 63.4706 10.1011 63.9976 9.76633C64.5279 9.43158 65.1477 9.2642 65.857 9.2642C66.2878 9.2642 66.7055 9.33546 67.1098 9.47798C67.5142 9.6205 67.8771 9.84422 68.1986 10.1491C68.5201 10.4541 68.7736 10.8501 68.9592 11.3374C69.1449 11.8213 69.2377 12.4096 69.2377 13.1023V13.6293H63.1673V12.5156H67.781C67.781 12.1245 67.7014 11.7782 67.5423 11.4766C67.3833 11.1716 67.1595 10.9313 66.8712 10.7557C66.5861 10.58 66.2514 10.4922 65.8669 10.4922C65.4493 10.4922 65.0847 10.5949 64.7732 10.8004C64.4649 11.0026 64.2263 11.2678 64.0573 11.5959C63.8915 11.9207 63.8087 12.2737 63.8087 12.6548V13.5249C63.8087 14.0353 63.8982 14.4695 64.0771 14.8274C64.2594 15.1854 64.513 15.4588 64.8378 15.6477C65.1626 15.8333 65.5421 15.9261 65.9763 15.9261C66.258 15.9261 66.5149 15.8864 66.7469 15.8068C66.9789 15.724 67.1794 15.6013 67.3485 15.4389C67.5175 15.2765 67.6467 15.076 67.7362 14.8374L69.1432 15.0909C69.0305 15.5052 68.8283 15.8681 68.5367 16.1797C68.2483 16.4879 67.8854 16.7282 67.4479 16.9006C67.0137 17.0696 66.5182 17.1541 65.9614 17.1541ZM70.987 17V9.36364H72.4238V10.5767H72.5033C72.6425 10.1657 72.8878 9.84257 73.2391 9.60724C73.5938 9.36861 73.9948 9.24929 74.4422 9.24929C74.535 9.24929 74.6444 9.2526 74.7704 9.25923C74.8996 9.26586 75.0007 9.27415 75.0736 9.28409V10.706C75.014 10.6894 74.9079 10.6712 74.7554 10.6513C74.603 10.6281 74.4505 10.6165 74.2981 10.6165C73.9467 10.6165 73.6335 10.6911 73.3584 10.8402C73.0867 10.986 72.8712 11.1899 72.7121 11.4517C72.553 11.7102 72.4735 12.0052 72.4735 12.3366V17H70.987ZM82.1823 11.228L80.835 11.4666C80.7787 11.2943 80.6892 11.1302 80.5666 10.9744C80.4472 10.8187 80.2848 10.6911 80.0793 10.5916C79.8739 10.4922 79.617 10.4425 79.3088 10.4425C78.8878 10.4425 78.5365 10.5369 78.2548 10.7259C77.973 10.9115 77.8322 11.1518 77.8322 11.4467C77.8322 11.7019 77.9266 11.9074 78.1156 12.0632C78.3045 12.219 78.6094 12.3466 79.0303 12.446L80.2434 12.7244C80.9461 12.8868 81.4697 13.1371 81.8144 13.4751C82.1591 13.8132 82.3315 14.2524 82.3315 14.7926C82.3315 15.25 82.1989 15.6577 81.9338 16.0156C81.6719 16.3703 81.3057 16.6487 80.835 16.8509C80.3677 17.053 79.8258 17.1541 79.2093 17.1541C78.3542 17.1541 77.6565 16.9718 77.1163 16.6072C76.576 16.2393 76.2446 15.7173 76.122 15.0412L77.5588 14.8224C77.6482 15.197 77.8322 15.4804 78.1106 15.6726C78.389 15.8615 78.7519 15.956 79.1994 15.956C79.6866 15.956 80.076 15.8549 80.3677 15.6527C80.6594 15.4472 80.8052 15.197 80.8052 14.902C80.8052 14.6634 80.7157 14.4628 80.5367 14.3004C80.3611 14.138 80.0909 14.0154 79.7264 13.9325L78.4338 13.6491C77.7212 13.4867 77.1942 13.2282 76.8528 12.8736C76.5147 12.5189 76.3457 12.0698 76.3457 11.5263C76.3457 11.0755 76.4716 10.6811 76.7235 10.343C76.9754 10.005 77.3234 9.74148 77.7676 9.55256C78.2117 9.36032 78.7204 9.2642 79.2938 9.2642C80.1191 9.2642 80.7687 9.44318 81.2427 9.80114C81.7167 10.1558 82.0299 10.6314 82.1823 11.228ZM87.2825 17.1541C86.5666 17.1541 85.9418 16.9901 85.4082 16.6619C84.8746 16.3338 84.4603 15.8748 84.1653 15.2848C83.8703 14.6948 83.7229 14.0054 83.7229 13.2166C83.7229 12.4245 83.8703 11.7318 84.1653 11.1385C84.4603 10.5452 84.8746 10.0845 85.4082 9.75639C85.9418 9.42827 86.5666 9.2642 87.2825 9.2642C87.9984 9.2642 88.6232 9.42827 89.1568 9.75639C89.6904 10.0845 90.1047 10.5452 90.3997 11.1385C90.6947 11.7318 90.8422 12.4245 90.8422 13.2166C90.8422 14.0054 90.6947 14.6948 90.3997 15.2848C90.1047 15.8748 89.6904 16.3338 89.1568 16.6619C88.6232 16.9901 87.9984 17.1541 87.2825 17.1541ZM87.2875 15.9062C87.7515 15.9062 88.136 15.7836 88.4409 15.5384C88.7458 15.2931 88.9712 14.9666 89.117 14.5589C89.2662 14.1513 89.3407 13.7022 89.3407 13.2116C89.3407 12.7244 89.2662 12.277 89.117 11.8693C88.9712 11.4583 88.7458 11.1286 88.4409 10.88C88.136 10.6314 87.7515 10.5071 87.2875 10.5071C86.8202 10.5071 86.4324 10.6314 86.1241 10.88C85.8192 11.1286 85.5922 11.4583 85.443 11.8693C85.2972 12.277 85.2243 12.7244 85.2243 13.2116C85.2243 13.7022 85.2972 14.1513 85.443 14.5589C85.5922 14.9666 85.8192 15.2931 86.1241 15.5384C86.4324 15.7836 86.8202 15.9062 87.2875 15.9062ZM94.0879 12.4659V17H92.6014V9.36364H94.0283V10.6065H94.1227C94.2984 10.2022 94.5735 9.87737 94.948 9.6321C95.3259 9.38684 95.8015 9.2642 96.3749 9.2642C96.8952 9.2642 97.351 9.37358 97.7421 9.59233C98.1332 9.80777 98.4364 10.1293 98.6519 10.5568C98.8673 10.9844 98.975 11.513 98.975 12.1428V17H97.4885V12.3217C97.4885 11.7682 97.3443 11.3357 97.056 11.0241C96.7676 10.7093 96.3716 10.5518 95.8678 10.5518C95.5231 10.5518 95.2165 10.6264 94.948 10.7756C94.6829 10.9247 94.4724 11.1435 94.3166 11.4318C94.1642 11.7169 94.0879 12.0616 94.0879 12.4659Z" fill="white"/>
</svg>
