<svg width="134" height="80" viewBox="0 0 134 80" fill="none" xmlns="http://www.w3.org/2000/svg">
<path d="M27.3932 79.6875C21.4596 79.6875 16.3592 78.627 12.092 76.5061C7.82484 74.3851 4.68127 71.4688 2.66131 67.7571C0.64135 64.0454 -0.00251353 59.7909 0.729723 54.9935H21.1818C20.8283 57.6447 21.5101 59.7782 23.2271 61.3942C24.944 62.9849 27.1912 63.7803 29.9687 63.7803C32.1654 63.7803 34.1601 63.3258 35.9528 62.4168C37.7455 61.4826 39.2479 60.1822 40.4599 58.5158C41.6718 56.8241 42.4672 54.842 42.8459 52.5695C43.2247 50.2971 43.0858 48.3276 42.4293 46.6611C41.7728 44.9694 40.6997 43.6691 39.21 42.7601C37.7203 41.8258 35.9023 41.3587 33.7561 41.3587C31.5089 41.3587 29.3627 41.9016 27.3175 42.9873C25.2723 44.0478 23.631 45.5249 22.3938 47.4186L4.51715 43.7827L14.6675 1.06048H66.7825L64.0555 17.8767H29.2112L24.8178 34.9958H25.2723C26.8882 32.6476 29.3122 30.7034 32.5441 29.1632C35.8013 27.5977 39.3868 26.815 43.3004 26.815C47.9211 26.815 51.86 27.8881 55.1172 30.0343C58.3744 32.1805 60.7352 35.1473 62.1997 38.9348C63.6642 42.7222 63.9798 47.0651 63.1466 51.9635C62.3133 57.3669 60.2681 62.1517 57.0109 66.3179C53.7537 70.484 49.5876 73.7539 44.5124 76.1273C39.4372 78.5008 33.7309 79.6875 27.3932 79.6875Z" fill="#FE6100"/>
<path d="M112.949 25.3C113.177 22.8003 112.571 20.8435 111.131 19.4295C109.692 17.9903 107.268 17.2707 103.86 17.2707C101.688 17.2707 99.8701 17.5232 98.4056 18.0282C96.9664 18.5332 95.8428 19.2275 95.0348 20.1112C94.2521 20.995 93.7597 22.0176 93.5577 23.1791C93.3305 24.088 93.3431 24.9213 93.5956 25.6788C93.8733 26.411 94.391 27.0801 95.1484 27.6861C95.9312 28.2921 96.9538 28.835 98.2163 29.3147C99.504 29.7944 101.032 30.2237 102.799 30.6024L108.859 31.9659C113 32.8749 116.472 34.0742 119.274 35.564C122.102 37.0284 124.324 38.7706 125.94 40.7906C127.556 42.8106 128.617 45.0704 129.122 47.5701C129.652 50.0698 129.665 52.7968 129.16 55.751C128.301 60.8514 126.319 65.169 123.213 68.704C120.108 72.2389 116.055 74.928 111.056 76.7712C106.056 78.6144 100.274 79.536 93.7092 79.536C86.9928 79.536 81.2864 78.5386 76.59 76.5439C71.9189 74.524 68.5354 71.4435 66.4397 67.3026C64.3693 63.1364 63.8643 57.8214 64.9248 51.3575H84.9224C84.6194 53.731 84.8719 55.7257 85.6799 57.3417C86.4878 58.9576 87.7882 60.1822 89.5809 61.0155C91.3736 61.8487 93.6082 62.2653 96.2847 62.2653C98.5571 62.2653 100.501 61.9876 102.117 61.4321C103.733 60.8766 105.008 60.1065 105.943 59.1218C106.877 58.137 107.445 57.0134 107.647 55.751C107.849 54.5895 107.647 53.5542 107.041 52.6453C106.435 51.7363 105.337 50.9157 103.746 50.1834C102.155 49.4512 99.9711 48.7821 97.1937 48.1761L89.7703 46.5096C83.1802 44.9947 78.206 42.4949 74.8478 39.0105C71.4896 35.5261 70.3029 30.7539 71.2876 24.694C72.0956 19.7451 74.1282 15.4275 77.3854 11.741C80.6678 8.02935 84.834 5.1509 89.8839 3.10569C94.9591 1.03523 100.577 0 106.738 0C113 0 118.239 1.04786 122.456 3.14357C126.698 5.23928 129.74 8.18085 131.584 11.9683C133.452 15.7557 133.957 20.1996 133.098 25.3H112.949Z" fill="#FE6100"/>
</svg>
