<svg width="101" height="22" viewBox="0 0 101 22" fill="none" xmlns="http://www.w3.org/2000/svg">
<path d="M6.85228 18.1988C5.73959 18.1988 4.78315 17.9999 3.98297 17.6022C3.18278 17.2045 2.59329 16.6576 2.2145 15.9616C1.83571 15.2656 1.71497 14.4677 1.85228 13.5681H5.68751C5.62122 14.0653 5.74906 14.4654 6.07103 14.7684C6.393 15.0667 6.8144 15.2158 7.33524 15.2158C7.74717 15.2158 8.12122 15.1306 8.4574 14.9602C8.79357 14.785 9.0753 14.5411 9.30257 14.2286C9.52984 13.9114 9.67899 13.5397 9.75001 13.1136C9.82103 12.6874 9.79499 12.3181 9.67189 12.0056C9.54878 11.6884 9.34755 11.4445 9.06819 11.2741C8.78884 11.0989 8.44793 11.0113 8.04547 11.0113C7.62406 11.0113 7.2216 11.1131 6.83808 11.3167C6.45456 11.5156 6.14679 11.7925 5.91478 12.1477L2.56251 11.4658L4.46592 3.45448H14.2386L13.7273 6.60789H7.19319L6.36933 9.81812H6.45456C6.75759 9.37777 7.21213 9.01319 7.81819 8.72437C8.42899 8.4308 9.10134 8.28402 9.83524 8.28402C10.7017 8.28402 11.4404 8.48526 12.0511 8.88772C12.6619 9.29018 13.1047 9.84652 13.3793 10.5568C13.6539 11.267 13.7131 12.0814 13.5568 12.9999C13.4006 14.0132 13.0171 14.9104 12.4063 15.6917C11.7955 16.4729 11.0142 17.0861 10.0625 17.5312C9.11081 17.9763 8.04073 18.1988 6.85228 18.1988Z" fill="#FE6100"/>
<path d="M25.9221 10.1477H24.1494C24.0812 9.76887 23.9543 9.43554 23.7687 9.14766C23.5831 8.85978 23.3558 8.61546 23.0869 8.41471C22.8179 8.21395 22.5168 8.06243 22.1835 7.96016C21.8539 7.85789 21.5035 7.80675 21.1323 7.80675C20.4619 7.80675 19.8615 7.97531 19.3312 8.31243C18.8047 8.64956 18.388 9.14387 18.0812 9.79539C17.7782 10.4469 17.6266 11.2424 17.6266 12.1818C17.6266 13.1287 17.7782 13.928 18.0812 14.5795C18.388 15.231 18.8066 15.7234 19.3369 16.0568C19.8672 16.3901 20.4638 16.5568 21.1266 16.5568C21.4941 16.5568 21.8426 16.5075 22.1721 16.409C22.5054 16.3068 22.8066 16.1571 23.0755 15.9602C23.3444 15.7632 23.5717 15.5227 23.7573 15.2386C23.9467 14.9507 24.0774 14.6211 24.1494 14.2499L25.9221 14.2556C25.8274 14.8276 25.6437 15.3541 25.371 15.8352C25.102 16.3124 24.7554 16.7253 24.3312 17.0738C23.9107 17.4185 23.4297 17.6855 22.888 17.8749C22.3463 18.0643 21.7554 18.159 21.1153 18.159C20.1077 18.159 19.21 17.9204 18.4221 17.4431C17.6342 16.9621 17.013 16.2746 16.5585 15.3806C16.1077 14.4867 15.8823 13.4204 15.8823 12.1818C15.8823 10.9393 16.1096 9.87304 16.5641 8.98289C17.0187 8.08895 17.6399 7.40334 18.4278 6.92607C19.2157 6.44501 20.1115 6.20448 21.1153 6.20448C21.7327 6.20448 22.3085 6.29349 22.8426 6.47152C23.3804 6.64577 23.8634 6.90334 24.2914 7.24425C24.7194 7.58137 25.0736 7.99425 25.3539 8.48289C25.6342 8.96774 25.8236 9.52266 25.9221 10.1477Z" fill="#FE6100"/>
<path d="M36.8509 12.1818C36.8509 13.4242 36.6236 14.4924 36.1691 15.3863C35.7145 16.2764 35.0914 16.9621 34.2998 17.4431C33.5119 17.9204 32.6161 18.159 31.6123 18.159C30.6047 18.159 29.7051 17.9204 28.9134 17.4431C28.1255 16.9621 27.5043 16.2746 27.0498 15.3806C26.5952 14.4867 26.368 13.4204 26.368 12.1818C26.368 10.9393 26.5952 9.87304 27.0498 8.98289C27.5043 8.08895 28.1255 7.40334 28.9134 6.92607C29.7051 6.44501 30.6047 6.20448 31.6123 6.20448C32.6161 6.20448 33.5119 6.44501 34.2998 6.92607C35.0914 7.40334 35.7145 8.08895 36.1691 8.98289C36.6236 9.87304 36.8509 10.9393 36.8509 12.1818ZM35.1123 12.1818C35.1123 11.2348 34.9589 10.4374 34.652 9.78971C34.349 9.13819 33.9323 8.64577 33.402 8.31243C32.8755 7.97531 32.2789 7.80675 31.6123 7.80675C30.9418 7.80675 30.3433 7.97531 29.8168 8.31243C29.2903 8.64577 28.8736 9.13819 28.5668 9.78971C28.2638 10.4374 28.1123 11.2348 28.1123 12.1818C28.1123 13.1287 28.2638 13.928 28.5668 14.5795C28.8736 15.2272 29.2903 15.7196 29.8168 16.0568C30.3433 16.3901 30.9418 16.5568 31.6123 16.5568C32.2789 16.5568 32.8755 16.3901 33.402 16.0568C33.9323 15.7196 34.349 15.2272 34.652 14.5795C34.9589 13.928 35.1123 13.1287 35.1123 12.1818Z" fill="#FE6100"/>
<path d="M47.1519 6.36357V17.9999H45.5382L39.6235 9.46584H39.5155V17.9999H37.7598V6.36357H39.3848L45.3053 14.909H45.4132V6.36357H47.1519Z" fill="#FE6100"/>
<path d="M47.8591 7.87493V6.36357H56.8648V7.87493H53.2341V17.9999H51.4841V7.87493H47.8591Z" fill="#FE6100"/>
<path d="M57.5748 17.9999V6.36357H61.7226C62.6241 6.36357 63.3722 6.51887 63.9669 6.82948C64.5654 7.14008 65.0123 7.57001 65.3078 8.11925C65.6032 8.66471 65.751 9.29539 65.751 10.0113C65.751 10.7234 65.6013 11.3503 65.3021 11.892C65.0066 12.4299 64.5597 12.8484 63.9612 13.1477C63.3665 13.4469 62.6184 13.5965 61.7169 13.5965H58.5748V12.0852H61.5578C62.126 12.0852 62.5881 12.0037 62.9441 11.8408C63.304 11.678 63.5672 11.4412 63.7339 11.1306C63.9006 10.82 63.9839 10.4469 63.9839 10.0113C63.9839 9.5719 63.8987 9.19122 63.7282 8.86925C63.5616 8.54728 63.2983 8.30107 62.9385 8.13062C62.5824 7.95637 62.1146 7.86925 61.5351 7.86925H59.3305V17.9999H57.5748ZM63.3191 12.7499L66.1941 17.9999H64.1941L61.376 12.7499H63.3191Z" fill="#FE6100"/>
<path d="M76.7153 12.1818C76.7153 13.4242 76.488 14.4924 76.0335 15.3863C75.5789 16.2764 74.9558 16.9621 74.1641 17.4431C73.3763 17.9204 72.4804 18.159 71.4766 18.159C70.4691 18.159 69.5694 17.9204 68.7778 17.4431C67.9899 16.9621 67.3687 16.2746 66.9141 15.3806C66.4596 14.4867 66.2323 13.4204 66.2323 12.1818C66.2323 10.9393 66.4596 9.87304 66.9141 8.98289C67.3687 8.08895 67.9899 7.40334 68.7778 6.92607C69.5694 6.44501 70.4691 6.20448 71.4766 6.20448C72.4804 6.20448 73.3763 6.44501 74.1641 6.92607C74.9558 7.40334 75.5789 8.08895 76.0335 8.98289C76.488 9.87304 76.7153 10.9393 76.7153 12.1818ZM74.9766 12.1818C74.9766 11.2348 74.8232 10.4374 74.5164 9.78971C74.2134 9.13819 73.7967 8.64577 73.2664 8.31243C72.7399 7.97531 72.1433 7.80675 71.4766 7.80675C70.8062 7.80675 70.2077 7.97531 69.6812 8.31243C69.1547 8.64577 68.738 9.13819 68.4312 9.78971C68.1282 10.4374 67.9766 11.2348 67.9766 12.1818C67.9766 13.1287 68.1282 13.928 68.4312 14.5795C68.738 15.2272 69.1547 15.7196 69.6812 16.0568C70.2077 16.3901 70.8062 16.5568 71.4766 16.5568C72.1433 16.5568 72.7399 16.3901 73.2664 16.0568C73.7967 15.7196 74.2134 15.2272 74.5164 14.5795C74.8232 13.928 74.9766 13.1287 74.9766 12.1818Z" fill="#FE6100"/>
<path d="M77.6242 17.9999V6.36357H79.3799V16.4886H84.6526V17.9999H77.6242Z" fill="#FE6100"/>
<path d="M95.3741 7.99993C95.4167 7.53118 95.3031 7.16423 95.0332 6.89908C94.7633 6.62919 94.3087 6.49425 93.6695 6.49425C93.2623 6.49425 92.9214 6.5416 92.6468 6.6363C92.3769 6.73099 92.1662 6.8612 92.0147 7.02692C91.8679 7.19264 91.7756 7.3844 91.7377 7.60221C91.6951 7.77266 91.6975 7.92891 91.7448 8.07096C91.7969 8.20827 91.894 8.33374 92.036 8.44738C92.1828 8.56101 92.3746 8.66281 92.6113 8.75277C92.8528 8.84274 93.1392 8.92323 93.4707 8.99425L94.607 9.24993C95.3836 9.42039 96.0346 9.64529 96.5602 9.92465C97.0905 10.1993 97.5071 10.526 97.8102 10.9048C98.1132 11.2836 98.3121 11.7073 98.4068 12.1761C98.5062 12.6448 98.5086 13.1562 98.4139 13.7102C98.2529 14.6666 97.8812 15.4763 97.2988 16.1391C96.7164 16.802 95.9565 17.3063 95.019 17.6519C94.0815 17.9976 92.9972 18.1704 91.7661 18.1704C90.5067 18.1704 89.4366 17.9834 88.5559 17.6093C87.68 17.2305 87.0455 16.6529 86.6525 15.8764C86.2642 15.0951 86.1695 14.0984 86.3684 12.8863H90.1184C90.0616 13.3314 90.1089 13.7054 90.2605 14.0085C90.412 14.3115 90.6558 14.5411 90.992 14.6974C91.3282 14.8536 91.7472 14.9318 92.2491 14.9318C92.6752 14.9318 93.0398 14.8797 93.3428 14.7755C93.6459 14.6713 93.885 14.5269 94.0602 14.3423C94.2354 14.1576 94.3419 13.9469 94.3798 13.7102C94.4176 13.4924 94.3798 13.2982 94.2661 13.1278C94.1525 12.9573 93.9465 12.8034 93.6482 12.6661C93.3499 12.5288 92.9404 12.4033 92.4195 12.2897L91.0275 11.9772C89.7917 11.6931 88.8589 11.2244 88.2292 10.571C87.5995 9.91755 87.3769 9.02266 87.5616 7.8863C87.7131 6.95827 88.0943 6.14861 88.7051 5.45732C89.3206 4.7613 90.1018 4.22152 91.0488 3.838C92.0005 3.44974 93.054 3.25562 94.2093 3.25562C95.3836 3.25562 96.366 3.45211 97.1568 3.8451C97.9522 4.2381 98.5228 4.78971 98.8684 5.49993C99.2188 6.21016 99.3135 7.04349 99.1525 7.99993H95.3741Z" fill="#FE6100"/>
</svg>
