<svg width="22" height="20" viewBox="0 0 22 20" fill="none" xmlns="http://www.w3.org/2000/svg">
<path fill-rule="evenodd" clip-rule="evenodd" d="M9.70588 0C10.0632 0 10.3529 0.279825 10.3529 0.625V6.25H11.6471V3.75C11.6471 3.40482 11.9368 3.125 12.2941 3.125C12.6514 3.125 12.9412 3.40482 12.9412 3.75V6.25C14.0132 6.25 14.8824 7.08946 14.8824 8.125V9.375H18.1176C18.1543 9.375 18.1901 9.37787 18.2251 9.3835C18.4889 8.65087 19.2103 8.125 20.0588 8.125C21.1309 8.125 22 8.9645 22 10C22 11.0355 21.1309 11.875 20.0588 11.875C19.2103 11.875 18.4889 11.3491 18.2251 10.6165C18.1901 10.6221 18.1543 10.625 18.1176 10.625H14.8824V11.875C14.8824 12.9105 14.0132 13.75 12.9412 13.75V19.375C12.9412 19.7201 12.6514 20 12.2941 20C11.9368 20 11.6471 19.7201 11.6471 19.375V13.75H10.3529V16.25C10.3529 16.5951 10.0632 16.875 9.70588 16.875C9.34858 16.875 9.05882 16.5951 9.05882 16.25V13.75C7.98674 13.75 7.11765 12.9105 7.11765 11.875V10.625H3.88235C3.84578 10.625 3.80992 10.6221 3.77501 10.6165C3.51104 11.3491 2.78969 11.875 1.94118 11.875C0.869091 11.875 0 11.0355 0 10C0 8.9645 0.869091 8.125 1.94118 8.125C2.78969 8.125 3.51104 8.65087 3.77501 9.3835C3.80992 9.37787 3.84578 9.375 3.88235 9.375H7.11765V8.125C7.11765 7.08946 7.98674 6.25 9.05882 6.25V0.625C9.05882 0.279825 9.34858 0 9.70588 0ZM12.9412 12.5C13.2985 12.5 13.5882 12.2201 13.5882 11.875V8.125C13.5882 7.77987 13.2985 7.5 12.9412 7.5H9.05882C8.70152 7.5 8.41177 7.77987 8.41177 8.125V11.875C8.41177 12.2201 8.70152 12.5 9.05882 12.5H12.9412ZM1.94118 9.375C1.58382 9.375 1.29412 9.65487 1.29412 10C1.29412 10.3451 1.58382 10.625 1.94118 10.625C2.29853 10.625 2.58824 10.3451 2.58824 10C2.58824 9.65487 2.29853 9.375 1.94118 9.375ZM19.4118 10C19.4118 9.65487 19.7015 9.375 20.0588 9.375C20.4161 9.375 20.7059 9.65487 20.7059 10C20.7059 10.3451 20.4161 10.625 20.0588 10.625C19.7015 10.625 19.4118 10.3451 19.4118 10Z" />
<path d="M12.9412 12.5C13.2985 12.5 13.5882 12.2201 13.5882 11.875V8.125C13.5882 7.77987 13.2985 7.5 12.9412 7.5H9.05882C8.70152 7.5 8.41177 7.77987 8.41177 8.125V11.875C8.41177 12.2201 8.70152 12.5 9.05882 12.5H12.9412Z" />
</svg>
