<svg width="14" height="14" viewBox="0 0 14 14" fill="none" xmlns="http://www.w3.org/2000/svg">
<path d="M10.0607 4.05334L5.66732 8.44668L3.27398 6.06001L2.33398 7.00001L5.66732 10.3333L11.0007 5.00001L10.0607 4.05334ZM7.00065 0.333344C3.32065 0.333344 0.333984 3.32001 0.333984 7.00001C0.333984 10.68 3.32065 13.6667 7.00065 13.6667C10.6807 13.6667 13.6673 10.68 13.6673 7.00001C13.6673 3.32001 10.6807 0.333344 7.00065 0.333344ZM7.00065 12.3333C4.05398 12.3333 1.66732 9.94668 1.66732 7.00001C1.66732 4.05334 4.05398 1.66668 7.00065 1.66668C9.94732 1.66668 12.334 4.05334 12.334 7.00001C12.334 9.94668 9.94732 12.3333 7.00065 12.3333Z" fill="currentColor"/>
</svg>
