<svg width="22" height="20" viewBox="0 0 22 20" fill="none" xmlns="http://www.w3.org/2000/svg">
<path fill-rule="evenodd" clip-rule="evenodd" d="M12.3699 18.6327H3.43157V5.17426C3.43157 4.22252 3.98767 3.95442 4.12331 3.95442L12.3699 1.64879V18.6327ZM5.91369 4.4504H7.2836V5.80429H5.91369V4.4504ZM9.07398 4.4504H10.4439V5.80429H9.07398V4.4504ZM5.91369 7.41287H7.2836V8.76676H5.91369V7.41287ZM9.07398 7.41287H10.4439V8.76676H9.07398V7.41287ZM5.91369 10.3753H7.2836V11.7292H5.91369V10.3753ZM9.07398 10.3753H10.4439V11.7292H9.07398V10.3753ZM5.91369 13.3244H7.2836V14.6917H5.91369V13.3244ZM9.07398 13.3244H10.4439V14.6917H9.07398V13.3244ZM5.91369 16.2869H7.2836V17.6407H5.91369V16.2869ZM9.07398 16.2869H10.4439V17.6407H9.07398V16.2869Z" />
<path fill-rule="evenodd" clip-rule="evenodd" d="M18.5684 18.6327H13.7534V3.53887L17.9988 4.93297L18.0937 4.97319C18.0937 4.97319 18.5142 5.14745 18.582 6.3941V18.6327H18.5684ZM16.9137 8.43164H15.5438V7.07775H16.9137V8.43164ZM16.9137 11.555H15.5438V10.2011H16.9137V11.555ZM16.9137 14.5308H15.5438V13.1769H16.9137V14.5308ZM16.9137 17.5469H15.5438V16.193H16.9137V17.5469Z" />
<path fill-rule="evenodd" clip-rule="evenodd" d="M21.3083 18.6327H19.9383V6.3941C19.9383 4.49062 18.8397 3.67292 18.148 3.53887L13.7534 2.18499V0.683646C13.7534 0.42776 13.6298 0.29399 13.5006 0.154126L13.4821 0.134048C13.3465 -1.3411e-07 13.0752 0 12.926 0L3.7164 2.58713C3.7164 2.58713 2.06165 2.98928 2.06165 5.17426V18.6327H0.691739C0.284834 18.6327 0 18.9008 0 19.3164C0 19.7185 0.27127 20 0.691739 20H21.3083C21.7152 20 22 19.7319 22 19.3164C22 18.9008 21.7287 18.6327 21.3083 18.6327ZM12.3699 18.6327H3.43157V5.17426C3.43157 4.22252 3.98767 3.95442 4.12331 3.95442L12.3699 1.64879V18.6327ZM18.5684 18.6327H13.7534V3.53887L17.9988 4.93297L18.0937 4.97319C18.0937 4.97319 18.5142 5.14745 18.582 6.3941V18.6327H18.5684Z" />
</svg>
