<svg width="24" height="24" viewBox="0 0 24 24" xmlns="http://www.w3.org/2000/svg">
<path d="M22.3083 20.6327H20.9383V8.3941C20.9383 6.49062 19.8397 5.67292 19.148 5.53887L14.7534 4.18499V2.68365C14.7534 2.41555 14.6178 2.2815 14.4821 2.13405C14.3465 2 14.0752 2 13.926 2L4.7164 4.58713C4.7164 4.58713 3.06165 4.98928 3.06165 7.17426V20.6327H1.69174C1.28483 20.6327 1 20.9008 1 21.3164C1 21.7185 1.27127 22 1.69174 22H22.3083C22.7152 22 23 21.7319 23 21.3164C23 20.9008 22.7287 20.6327 22.3083 20.6327ZM13.3699 20.6327H4.43157V7.17426C4.43157 6.22252 4.98767 5.95442 5.12331 5.95442L13.3699 3.64879V20.6327ZM19.5684 20.6327H14.7534V5.53887L18.9988 6.93297L19.0937 6.97319C19.0937 6.97319 19.5142 7.14745 19.582 8.3941V20.6327H19.5684ZM8.2836 6.4504H6.91369V7.80429H8.2836V6.4504ZM11.4439 6.4504H10.074V7.80429H11.4439V6.4504ZM8.2836 9.41287H6.91369V10.7668H8.2836V9.41287ZM11.4439 9.41287H10.074V10.7668H11.4439V9.41287ZM8.2836 12.3753H6.91369V13.7292H8.2836V12.3753ZM11.4439 12.3753H10.074V13.7292H11.4439V12.3753ZM8.2836 15.3244H6.91369V16.6917H8.2836V15.3244ZM11.4439 15.3244H10.074V16.6917H11.4439V15.3244ZM8.2836 18.2869H6.91369V19.6407H8.2836V18.2869ZM11.4439 18.2869H10.074V19.6407H11.4439V18.2869ZM16.5438 10.4316H17.9137V9.07775H16.5438V10.4316ZM16.5438 13.555H17.9137V12.2011H16.5438V13.555ZM16.5438 16.5308H17.9137V15.1769H16.5438V16.5308ZM16.5438 19.5469H17.9137V18.193H16.5438V19.5469Z"/>
</svg>
