<svg width="14" height="14" viewBox="0 0 14 14" fill="none" xmlns="http://www.w3.org/2000/svg">
<path d="M6.33398 9.00004H7.66732V10.3334H6.33398V9.00004ZM6.33398 3.66671H7.66732V7.66671H6.33398V3.66671ZM6.99398 0.333374C3.31398 0.333374 0.333984 3.32004 0.333984 7.00004C0.333984 10.68 3.31398 13.6667 6.99398 13.6667C10.6807 13.6667 13.6673 10.68 13.6673 7.00004C13.6673 3.32004 10.6807 0.333374 6.99398 0.333374ZM7.00065 12.3334C4.05398 12.3334 1.66732 9.94671 1.66732 7.00004C1.66732 4.05337 4.05398 1.66671 7.00065 1.66671C9.94732 1.66671 12.334 4.05337 12.334 7.00004C12.334 9.94671 9.94732 12.3334 7.00065 12.3334Z" fill="currentColor"/>
</svg>
