<svg width="24" height="24" viewBox="0 0 24 24" fill="none" xmlns="http://www.w3.org/2000/svg">
<path d="M18.4493 3.56625H16.4655V2.5725C16.4655 2.29875 16.2443 2.0775 15.9705 2.0775H14.433C14.2005 0.94875 13.1955 0.09375 11.9993 0.09375C10.803 0.09375 9.79805 0.94875 9.5693 2.0775H8.0318C7.75805 2.0775 7.5368 2.29875 7.5368 2.5725V3.56625H5.5493C4.72805 3.56625 4.06055 4.23375 4.06055 5.055V22.4175C4.06055 23.2388 4.72805 23.9062 5.5493 23.9062H18.4493C19.2705 23.9062 19.938 23.2388 19.938 22.4175V5.055C19.938 4.23375 19.2705 3.56625 18.4493 3.56625ZM11.9993 1.0875C12.6443 1.0875 13.1993 1.50375 13.4018 2.08125H10.593C10.6963 1.79079 10.8869 1.53938 11.1387 1.36147C11.3904 1.18356 11.691 1.08787 11.9993 1.0875ZM8.5268 3.07125H15.4718V5.055H8.5268V3.07125ZM18.9443 22.4175C18.9443 22.6912 18.723 22.9125 18.4493 22.9125H5.5493C5.27555 22.9125 5.0543 22.6912 5.0543 22.4175V5.055C5.0543 4.78125 5.27555 4.56 5.5493 4.56H7.53305V5.55375C7.53305 5.8275 7.7543 6.04875 8.02805 6.04875H15.9668C16.2405 6.04875 16.4618 5.8275 16.4618 5.55375V4.56H18.4455C18.7193 4.56 18.9405 4.78125 18.9405 5.055V22.4175H18.9443Z"/>
<path d="M9.16719 7.65369L7.50969 9.31119L7.18344 8.98494C6.98844 8.78994 6.67719 8.78994 6.48219 8.98494C6.28719 9.17994 6.28719 9.49494 6.48219 9.68619L7.16094 10.3649C7.43469 10.6387 7.76469 10.4624 7.86219 10.3649L9.87219 8.35494C10.0672 8.15994 10.0672 7.84869 9.87219 7.65369C9.67344 7.46244 9.36219 7.46244 9.16719 7.65369ZM9.16719 11.1412L7.50969 12.7987L7.18344 12.4724C6.98844 12.2774 6.67719 12.2774 6.48219 12.4724C6.28719 12.6674 6.28719 12.9787 6.48219 13.1737L7.16094 13.8524C7.46094 14.1337 7.76469 13.9499 7.86219 13.8524L9.87219 11.8424C10.0672 11.6474 10.0672 11.3362 9.87219 11.1412C9.67344 10.9462 9.36219 10.9462 9.16719 11.1412ZM9.16719 14.6249L7.50969 16.2862L7.18344 15.9599C6.98844 15.7649 6.67719 15.7649 6.48219 15.9599C6.28719 16.1549 6.28719 16.4662 6.48219 16.6612L7.16094 17.3399C7.46094 17.5987 7.76844 17.4337 7.86219 17.3399L9.87219 15.3299C10.0672 15.1349 10.0672 14.8237 9.87219 14.6287C9.67344 14.4337 9.36219 14.4337 9.16719 14.6249ZM9.16719 18.1124L7.50969 19.7699L7.18344 19.4437C6.98844 19.2487 6.67719 19.2487 6.48219 19.4437C6.28719 19.6387 6.28719 19.9537 6.48219 20.1449L7.16094 20.8237C7.53594 21.1049 7.76469 20.9212 7.86219 20.8237L9.87219 18.8137C10.0672 18.6187 10.0672 18.3074 9.87219 18.1124C9.67344 17.9174 9.36219 17.9174 9.16719 18.1124ZM17.4547 9.02244H11.5034C11.2297 9.02244 11.0084 9.24369 11.0084 9.51744C11.0084 9.79119 11.2297 10.0124 11.5034 10.0124H17.4584C17.7322 10.0124 17.9534 9.79119 17.9534 9.51744C17.9497 9.24369 17.7284 9.02244 17.4547 9.02244ZM17.4547 12.4949H11.5034C11.2297 12.4949 11.0084 12.7162 11.0084 12.9899C11.0084 13.2637 11.2297 13.4849 11.5034 13.4849H17.4584C17.7322 13.4849 17.9534 13.2637 17.9534 12.9899C17.9497 12.7162 17.7284 12.4949 17.4547 12.4949ZM17.4547 15.9674H11.5034C11.2297 15.9674 11.0084 16.1887 11.0084 16.4624C11.0084 16.7362 11.2297 16.9574 11.5034 16.9574H17.4584C17.7322 16.9574 17.9534 16.7362 17.9534 16.4624C17.9515 16.3311 17.8982 16.2058 17.805 16.1133C17.7118 16.0208 17.586 15.9684 17.4547 15.9674ZM17.4547 19.4399H11.5034C11.2297 19.4399 11.0084 19.6612 11.0084 19.9349C11.0084 20.2087 11.2297 20.4299 11.5034 20.4299H17.4584C17.7322 20.4299 17.9534 20.2087 17.9534 19.9349C17.9534 19.6612 17.7284 19.4399 17.4547 19.4399Z" />
</svg>
