<svg width="20" height="20" viewBox="0 0 20 20" fill="none" xmlns="http://www.w3.org/2000/svg">
    <path d="M17.795 2.20495C17.4908 1.90051 17.1297 1.659 16.7321 1.49422C16.3346 1.32944 15.9085 1.24463 15.4781 1.24463C15.0478 1.24463 14.6217 1.32944 14.2241 1.49422C13.8266 1.659 13.4654 1.90051 13.1612 2.20495L3.32124 12.045C2.85415 12.5128 2.52093 13.0972 2.35624 13.7375L1.26874 17.97C1.24178 18.0753 1.24274 18.1858 1.27155 18.2906C1.30035 18.3954 1.356 18.4909 1.43299 18.5677C1.50999 18.6444 1.60566 18.6997 1.71058 18.7282C1.8155 18.7567 1.92602 18.7573 2.03124 18.73L6.26249 17.6437C6.90297 17.4796 7.48754 17.1463 7.95499 16.6787L17.795 6.83871C18.0994 6.53455 18.3409 6.17338 18.5057 5.77584C18.6705 5.37829 18.7553 4.95217 18.7553 4.52183C18.7553 4.09149 18.6705 3.66537 18.5057 3.26782C18.3409 2.87028 18.0994 2.50911 17.795 2.20495ZM14.045 3.0887C14.4251 2.70862 14.9406 2.49509 15.4781 2.49509C16.0156 2.49509 16.5312 2.70862 16.9112 3.0887C17.2913 3.46879 17.5049 3.9843 17.5049 4.52183C17.5049 5.05936 17.2913 5.57487 16.9112 5.95495L15.9375 6.9287L13.0712 4.06245L14.045 3.0887ZM12.1875 4.9462L15.0537 7.81245L7.07124 15.795C6.76186 16.1041 6.37501 16.3243 5.95124 16.4325L2.74249 17.2575L3.56749 14.0487C3.67509 13.6247 3.89537 13.2377 4.20499 12.9287L12.1875 4.9462Z" fill="white"/>
</svg>
