<svg width="107" height="24" viewBox="0 0 107 24" fill="none" xmlns="http://www.w3.org/2000/svg">
<rect width="107" height="24" rx="12" fill="#e00606"/>
<g clip-path="url(#clip0_3355_60914)">
<path d="M17.3334 14H18.6667V15.3333H17.3334V14ZM17.3334 8.66665H18.6667V12.6666H17.3334V8.66665ZM17.9934 5.33331C14.3134 5.33331 11.3334 8.31998 11.3334 12C11.3334 15.68 14.3134 18.6666 17.9934 18.6666C21.68 18.6666 24.6667 15.68 24.6667 12C24.6667 8.31998 21.68 5.33331 17.9934 5.33331ZM18 17.3333C15.0534 17.3333 12.6667 14.9466 12.6667 12C12.6667 9.05331 15.0534 6.66665 18 6.66665C20.9467 6.66665 23.3334 9.05331 23.3334 12C23.3334 14.9466 20.9467 17.3333 18 17.3333Z" fill="white"/>
</g>
<path d="M32.202 6.36364L35.6565 16.1591H35.7929L39.2474 6.36364H40.7247L36.452 18H34.9974L30.7247 6.36364H32.202ZM42.5054 18V9.27273H43.8463V18H42.5054ZM43.1872 7.81818C42.9259 7.81818 42.7005 7.72917 42.5111 7.55114C42.3255 7.37311 42.2327 7.15909 42.2327 6.90909C42.2327 6.65909 42.3255 6.44508 42.5111 6.26705C42.7005 6.08902 42.9259 6 43.1872 6C43.4486 6 43.6721 6.08902 43.8577 6.26705C44.0471 6.44508 44.1418 6.65909 44.1418 6.90909C44.1418 7.15909 44.0471 7.37311 43.8577 7.55114C43.6721 7.72917 43.4486 7.81818 43.1872 7.81818ZM49.9977 18.1818C49.2099 18.1818 48.5186 17.9943 47.9239 17.6193C47.333 17.2443 46.8708 16.7197 46.5375 16.0455C46.208 15.3712 46.0432 14.5833 46.0432 13.6818C46.0432 12.7727 46.208 11.9792 46.5375 11.3011C46.8708 10.6231 47.333 10.0966 47.9239 9.72159C48.5186 9.34659 49.2099 9.15909 49.9977 9.15909C50.7856 9.15909 51.475 9.34659 52.0659 9.72159C52.6606 10.0966 53.1227 10.6231 53.4523 11.3011C53.7856 11.9792 53.9523 12.7727 53.9523 13.6818C53.9523 14.5833 53.7856 15.3712 53.4523 16.0455C53.1227 16.7197 52.6606 17.2443 52.0659 17.6193C51.475 17.9943 50.7856 18.1818 49.9977 18.1818ZM49.9977 16.9773C50.5962 16.9773 51.0886 16.8239 51.475 16.517C51.8614 16.2102 52.1474 15.8068 52.333 15.3068C52.5186 14.8068 52.6114 14.2652 52.6114 13.6818C52.6114 13.0985 52.5186 12.5549 52.333 12.0511C52.1474 11.5473 51.8614 11.1402 51.475 10.8295C51.0886 10.5189 50.5962 10.3636 49.9977 10.3636C49.3992 10.3636 48.9068 10.5189 48.5205 10.8295C48.1341 11.1402 47.8481 11.5473 47.6625 12.0511C47.4769 12.5549 47.3841 13.0985 47.3841 13.6818C47.3841 14.2652 47.4769 14.8068 47.6625 15.3068C47.8481 15.8068 48.1341 16.2102 48.5205 16.517C48.9068 16.8239 49.3992 16.9773 49.9977 16.9773ZM57.4901 6.36364V18H56.1492V6.36364H57.4901ZM62.6642 18.2045C62.1112 18.2045 61.6093 18.1004 61.1585 17.892C60.7078 17.6799 60.3498 17.375 60.0847 16.9773C59.8195 16.5758 59.6869 16.0909 59.6869 15.5227C59.6869 15.0227 59.7854 14.6174 59.9824 14.3068C60.1794 13.9924 60.4426 13.7462 60.7722 13.5682C61.1017 13.3902 61.4653 13.2576 61.8631 13.1705C62.2646 13.0795 62.668 13.0076 63.0733 12.9545C63.6036 12.8864 64.0335 12.8352 64.3631 12.8011C64.6964 12.7633 64.9388 12.7008 65.0903 12.6136C65.2456 12.5265 65.3233 12.375 65.3233 12.1591V12.1136C65.3233 11.553 65.1699 11.1174 64.8631 10.8068C64.56 10.4962 64.0998 10.3409 63.4824 10.3409C62.8422 10.3409 62.3403 10.4811 61.9767 10.7614C61.6131 11.0417 61.3574 11.3409 61.2097 11.6591L59.9369 11.2045C60.1642 10.6742 60.4672 10.2614 60.846 9.96591C61.2286 9.66667 61.6453 9.45833 62.096 9.34091C62.5506 9.2197 62.9975 9.15909 63.4369 9.15909C63.7172 9.15909 64.0392 9.19318 64.4028 9.26136C64.7703 9.32576 65.1244 9.46023 65.4653 9.66477C65.81 9.86932 66.096 10.178 66.3233 10.5909C66.5506 11.0038 66.6642 11.5568 66.6642 12.25V18H65.3233V16.8182H65.2551C65.1642 17.0076 65.0127 17.2102 64.8006 17.4261C64.5885 17.642 64.3063 17.8258 63.954 17.9773C63.6017 18.1288 63.1718 18.2045 62.6642 18.2045ZM62.8688 17C63.3991 17 63.846 16.8958 64.2097 16.6875C64.5771 16.4792 64.8536 16.2102 65.0392 15.8807C65.2286 15.5511 65.3233 15.2045 65.3233 14.8409V13.6136C65.2665 13.6818 65.1415 13.7443 64.9483 13.8011C64.7589 13.8542 64.5392 13.9015 64.2892 13.9432C64.043 13.9811 63.8025 14.0152 63.5676 14.0455C63.3366 14.072 63.1491 14.0947 63.0051 14.1136C62.6566 14.1591 62.3309 14.233 62.0278 14.3352C61.7286 14.4337 61.4862 14.5833 61.3006 14.7841C61.1188 14.9811 61.0278 15.25 61.0278 15.5909C61.0278 16.0568 61.2002 16.4091 61.5449 16.6477C61.8934 16.8826 62.3347 17 62.8688 17ZM73.0571 9.27273V10.4091H68.5344V9.27273H73.0571ZM69.8526 7.18182H71.1935V15.5C71.1935 15.8788 71.2484 16.1629 71.3582 16.3523C71.4719 16.5379 71.6158 16.6629 71.7901 16.7273C71.9681 16.7879 72.1556 16.8182 72.3526 16.8182C72.5003 16.8182 72.6215 16.8106 72.7162 16.7955C72.8109 16.7765 72.8867 16.7614 72.9435 16.75L73.2162 17.9545C73.1253 17.9886 72.9984 18.0227 72.8355 18.0568C72.6726 18.0947 72.4662 18.1136 72.2162 18.1136C71.8374 18.1136 71.4662 18.0322 71.1026 17.8693C70.7427 17.7064 70.4435 17.4583 70.2048 17.125C69.97 16.7917 69.8526 16.3712 69.8526 15.8636V7.18182ZM75.2242 18V9.27273H76.5651V18H75.2242ZM75.906 7.81818C75.6446 7.81818 75.4192 7.72917 75.2298 7.55114C75.0442 7.37311 74.9514 7.15909 74.9514 6.90909C74.9514 6.65909 75.0442 6.44508 75.2298 6.26705C75.4192 6.08902 75.6446 6 75.906 6C76.1673 6 76.3908 6.08902 76.5764 6.26705C76.7658 6.44508 76.8605 6.65909 76.8605 6.90909C76.8605 7.15909 76.7658 7.37311 76.5764 7.55114C76.3908 7.72917 76.1673 7.81818 75.906 7.81818ZM82.7165 18.1818C81.9286 18.1818 81.2373 17.9943 80.6426 17.6193C80.0517 17.2443 79.5896 16.7197 79.2563 16.0455C78.9267 15.3712 78.7619 14.5833 78.7619 13.6818C78.7619 12.7727 78.9267 11.9792 79.2563 11.3011C79.5896 10.6231 80.0517 10.0966 80.6426 9.72159C81.2373 9.34659 81.9286 9.15909 82.7165 9.15909C83.5044 9.15909 84.1938 9.34659 84.7847 9.72159C85.3794 10.0966 85.8415 10.6231 86.171 11.3011C86.5044 11.9792 86.671 12.7727 86.671 13.6818C86.671 14.5833 86.5044 15.3712 86.171 16.0455C85.8415 16.7197 85.3794 17.2443 84.7847 17.6193C84.1938 17.9943 83.5044 18.1818 82.7165 18.1818ZM82.7165 16.9773C83.315 16.9773 83.8074 16.8239 84.1938 16.517C84.5801 16.2102 84.8661 15.8068 85.0517 15.3068C85.2373 14.8068 85.3301 14.2652 85.3301 13.6818C85.3301 13.0985 85.2373 12.5549 85.0517 12.0511C84.8661 11.5473 84.5801 11.1402 84.1938 10.8295C83.8074 10.5189 83.315 10.3636 82.7165 10.3636C82.118 10.3636 81.6256 10.5189 81.2392 10.8295C80.8528 11.1402 80.5669 11.5473 80.3813 12.0511C80.1956 12.5549 80.1028 13.0985 80.1028 13.6818C80.1028 14.2652 80.1956 14.8068 80.3813 15.3068C80.5669 15.8068 80.8528 16.2102 81.2392 16.517C81.6256 16.8239 82.118 16.9773 82.7165 16.9773ZM90.2088 12.75V18H88.8679V9.27273H90.1634V10.6364H90.277C90.4815 10.1932 90.7921 9.83712 91.2088 9.56818C91.6255 9.29545 92.1634 9.15909 92.8224 9.15909C93.4134 9.15909 93.9304 9.2803 94.3736 9.52273C94.8168 9.76136 95.1615 10.125 95.4077 10.6136C95.6539 11.0985 95.777 11.7121 95.777 12.4545V18H94.4361V12.5455C94.4361 11.8598 94.2581 11.3258 93.902 10.9432C93.5459 10.5568 93.0573 10.3636 92.4361 10.3636C92.0081 10.3636 91.6255 10.4564 91.2884 10.642C90.955 10.8277 90.6918 11.0985 90.4986 11.4545C90.3054 11.8106 90.2088 12.2424 90.2088 12.75Z" fill="white"/>
<defs>
<clipPath id="clip0_3355_60914">
<rect width="16" height="16" fill="white" transform="translate(10 4)"/>
</clipPath>
</defs>
</svg>
