<svg width="110" height="22" viewBox="0 0 110 22" fill="none" xmlns="http://www.w3.org/2000/svg">
<g clip-path="url(#clip0_6377_138457)">
<path d="M9.35219 19.8003C8.10095 19.8003 7.02541 19.5758 6.12558 19.1269C5.22575 18.678 4.56286 18.0607 4.13691 17.2751C3.71095 16.4895 3.57518 15.5889 3.72959 14.5735H8.04238C7.96784 15.1347 8.1116 15.5863 8.47366 15.9283C8.83572 16.265 9.30959 16.4333 9.89528 16.4333C10.3585 16.4333 10.7791 16.3371 11.1572 16.1447C11.5352 15.947 11.852 15.6718 12.1076 15.3191C12.3632 14.961 12.5309 14.5415 12.6107 14.0605C12.6906 13.5795 12.6613 13.1626 12.5229 12.8099C12.3844 12.4518 12.1582 12.1766 11.844 11.9842C11.5299 11.7865 11.1465 11.6876 10.6939 11.6876C10.2201 11.6876 9.76749 11.8025 9.33621 12.0323C8.90493 12.2568 8.55885 12.5694 8.29795 12.9702L4.52825 12.2006L6.66867 3.15806H17.6583L17.0833 6.71737H9.73555L8.80909 10.3408H8.90493C9.2457 9.8438 9.75684 9.43228 10.4384 9.10628C11.1252 8.77493 11.8813 8.60926 12.7066 8.60926C13.6809 8.60926 14.5116 8.83639 15.1984 9.29066C15.8853 9.74493 16.3831 10.3729 16.6919 11.1745C17.0007 11.9762 17.0673 12.8954 16.8916 13.9322C16.7159 15.0759 16.2846 16.0886 15.5977 16.9704C14.9109 17.8523 14.0324 18.5443 12.9621 19.0467C11.8919 19.5491 10.6886 19.8003 9.35219 19.8003Z" fill="#FE6100"/>
<path d="M27.3936 8.2886C27.4415 7.75951 27.3137 7.34533 27.0103 7.04605C26.7068 6.74142 26.1956 6.58911 25.4768 6.58911C25.0189 6.58911 24.6356 6.64255 24.3267 6.74944C24.0232 6.85632 23.7863 7.00329 23.6159 7.19034C23.4509 7.37739 23.347 7.59384 23.3044 7.83968C23.2565 8.03207 23.2592 8.20844 23.3124 8.36877C23.371 8.52375 23.4802 8.66537 23.6399 8.79364C23.8049 8.9219 24.0206 9.03681 24.2868 9.13835C24.5584 9.23989 24.8805 9.33074 25.2532 9.41091L26.5311 9.6995C27.4043 9.8919 28.1364 10.1458 28.7274 10.4611C29.3237 10.771 29.7923 11.1398 30.133 11.5673C30.4738 11.9949 30.6974 12.4732 30.8039 13.0023C30.9157 13.5314 30.9184 14.1086 30.8119 14.7338C30.6309 15.8134 30.2129 16.7273 29.558 17.4755C28.9031 18.2237 28.0485 18.7929 26.9943 19.183C25.94 19.5731 24.7207 19.7682 23.3364 19.7682C21.9201 19.7682 20.7168 19.5571 19.7264 19.1349C18.7414 18.7073 18.0279 18.0553 17.586 17.1789C17.1494 16.2971 17.0429 15.1721 17.2665 13.8039H21.4835C21.4196 14.3063 21.4728 14.7285 21.6432 15.0705C21.8136 15.4126 22.0878 15.6718 22.4659 15.8481C22.8439 16.0245 23.3151 16.1127 23.8795 16.1127C24.3587 16.1127 24.7687 16.0539 25.1094 15.9363C25.4502 15.8187 25.7191 15.6557 25.9161 15.4473C26.1131 15.2389 26.2329 15.0011 26.2755 14.7338C26.3181 14.488 26.2755 14.2689 26.1477 14.0765C26.0199 13.8841 25.7883 13.7104 25.4529 13.5554C25.1174 13.4004 24.6569 13.2588 24.0712 13.1306L22.5058 12.7778C21.1161 12.4572 20.0672 11.9281 19.359 11.1906C18.6509 10.453 18.4007 9.44297 18.6083 8.16034C18.7787 7.11285 19.2073 6.19897 19.8942 5.4187C20.5863 4.63309 21.4649 4.02383 22.5297 3.59094C23.6 3.15271 24.7846 2.93359 26.0838 2.93359C27.4043 2.93359 28.5091 3.15538 29.3983 3.59896C30.2928 4.04254 30.9344 4.66515 31.323 5.4668C31.717 6.26845 31.8235 7.20905 31.6425 8.2886H27.3936Z" fill="#FE6100"/>
<path d="M45.5548 11.9861H43.4763C43.417 11.6413 43.3077 11.3358 43.1484 11.0696C42.9891 10.7997 42.7908 10.5711 42.5537 10.3836C42.3166 10.1962 42.0461 10.0557 41.7423 9.96194C41.4422 9.86448 41.118 9.81575 40.7698 9.81575C40.151 9.81575 39.6027 9.97318 39.1247 10.2881C38.6468 10.5992 38.2726 11.0565 38.0021 11.66C37.7316 12.2598 37.5964 12.9926 37.5964 13.8585C37.5964 14.7394 37.7316 15.4816 38.0021 16.0852C38.2763 16.6849 38.6505 17.1385 39.1247 17.4459C39.6027 17.7495 40.1492 17.9013 40.7642 17.9013C41.1051 17.9013 41.4237 17.8563 41.7201 17.7664C42.0202 17.6727 42.2888 17.5358 42.5259 17.3559C42.7668 17.176 42.9687 16.9548 43.1317 16.6924C43.2984 16.43 43.4133 16.1301 43.4763 15.7928L45.5548 15.804C45.477 16.3513 45.3084 16.8648 45.0491 17.3447C44.7934 17.8245 44.4581 18.248 44.0431 18.6154C43.6282 18.979 43.1428 19.2639 42.5871 19.4701C42.0313 19.6725 41.4144 19.7737 40.7364 19.7737C39.7361 19.7737 38.8431 19.5394 38.0577 19.0709C37.2722 18.6023 36.6535 17.9257 36.2015 17.041C35.7494 16.1564 35.5234 15.0955 35.5234 13.8585C35.5234 12.6178 35.7513 11.5569 36.207 10.676C36.6627 9.79138 37.2833 9.11477 38.0688 8.64621C38.8543 8.17764 39.7435 7.94336 40.7364 7.94336C41.37 7.94336 41.9591 8.03332 42.5037 8.21325C43.0483 8.39318 43.5337 8.65745 43.9598 9.00607C44.3859 9.35093 44.736 9.77451 45.0102 10.2768C45.288 10.7754 45.4696 11.3451 45.5548 11.9861Z" fill="#FE6100"/>
<path d="M56.8308 13.8585C56.8308 15.0993 56.6011 16.162 56.1416 17.0466C55.6859 17.9276 55.0635 18.6023 54.2743 19.0709C53.4888 19.5394 52.5978 19.7737 51.6011 19.7737C50.6045 19.7737 49.7116 19.5394 48.9224 19.0709C48.1369 18.5985 47.5145 17.9219 47.0551 17.041C46.5993 16.1564 46.3715 15.0955 46.3715 13.8585C46.3715 12.6178 46.5993 11.5569 47.0551 10.676C47.5145 9.79138 48.1369 9.11477 48.9224 8.64621C49.7116 8.17764 50.6045 7.94336 51.6011 7.94336C52.5978 7.94336 53.4888 8.17764 54.2743 8.64621C55.0635 9.11477 55.6859 9.79138 56.1416 10.676C56.6011 11.5569 56.8308 12.6178 56.8308 13.8585ZM54.7578 13.8585C54.7578 12.9851 54.6226 12.2485 54.3521 11.6488C54.0853 11.0453 53.7148 10.5898 53.2406 10.2824C52.7664 9.97131 52.2199 9.81575 51.6011 9.81575C50.9824 9.81575 50.4359 9.97131 49.9616 10.2824C49.4874 10.5898 49.1151 11.0453 48.8446 11.6488C48.5778 12.2485 48.4444 12.9851 48.4444 13.8585C48.4444 14.7319 48.5778 15.4704 48.8446 16.0739C49.1151 16.6737 49.4874 17.1291 49.9616 17.4402C50.4359 17.7476 50.9824 17.9013 51.6011 17.9013C52.2199 17.9013 52.7664 17.7476 53.2406 17.4402C53.7148 17.1291 54.0853 16.6737 54.3521 16.0739C54.6226 15.4704 54.7578 14.7319 54.7578 13.8585Z" fill="#FE6100"/>
<path d="M67.3509 8.1008V19.6163H65.5169L60.1539 11.7725H60.0594V19.6163H57.9976V8.1008H59.8427L65.2001 15.9502H65.3002V8.1008H67.3509Z" fill="#FE6100"/>
<path d="M68.3149 9.84948V8.1008H77.3959V9.84948H73.878V19.6163H71.8328V9.84948H68.3149Z" fill="#FE6100"/>
<path d="M78.364 19.6163V8.1008H82.6322C83.5066 8.1008 84.2402 8.25449 84.833 8.56187C85.4295 8.86924 85.8797 9.30032 86.1835 9.85511C86.491 10.4061 86.6447 11.049 86.6447 11.7837C86.6447 12.5222 86.4891 13.1632 86.1779 13.7067C85.8704 14.2465 85.4165 14.6645 84.8163 14.9606C84.2161 15.253 83.4788 15.3992 82.6044 15.3992H79.5644V13.6674H82.3265C82.8378 13.6674 83.2565 13.5961 83.5825 13.4537C83.9086 13.3075 84.1494 13.0957 84.305 12.8183C84.4643 12.5372 84.544 12.1923 84.544 11.7837C84.544 11.3751 84.4643 11.0265 84.305 10.7379C84.1457 10.4455 83.903 10.2243 83.577 10.0744C83.2509 9.92071 82.8304 9.84386 82.3154 9.84386H80.4259V19.6163H78.364ZM84.2439 14.3983L87.0616 19.6163H84.7607L81.9931 14.3983H84.2439Z" fill="#FE6100"/>
<path d="M97.9304 13.8585C97.9304 15.0993 97.7007 16.162 97.2413 17.0466C96.7856 17.9276 96.1631 18.6023 95.374 19.0709C94.5885 19.5394 93.6975 19.7737 92.7008 19.7737C91.7042 19.7737 90.8112 19.5394 90.0221 19.0709C89.2366 18.5985 88.6142 17.9219 88.1547 17.041C87.699 16.1564 87.4712 15.0955 87.4712 13.8585C87.4712 12.6178 87.699 11.5569 88.1547 10.676C88.6142 9.79138 89.2366 9.11477 90.0221 8.64621C90.8112 8.17764 91.7042 7.94336 92.7008 7.94336C93.6975 7.94336 94.5885 8.17764 95.374 8.64621C96.1631 9.11477 96.7856 9.79138 97.2413 10.676C97.7007 11.5569 97.9304 12.6178 97.9304 13.8585ZM95.8575 13.8585C95.8575 12.9851 95.7223 12.2485 95.4518 11.6488C95.185 11.0453 94.8145 10.5898 94.3403 10.2824C93.866 9.97131 93.3195 9.81575 92.7008 9.81575C92.0821 9.81575 91.5356 9.97131 91.0613 10.2824C90.5871 10.5898 90.2147 11.0453 89.9443 11.6488C89.6775 12.2485 89.5441 12.9851 89.5441 13.8585C89.5441 14.7319 89.6775 15.4704 89.9443 16.0739C90.2147 16.6737 90.5871 17.1291 91.0613 17.4402C91.5356 17.7476 92.0821 17.9013 92.7008 17.9013C93.3195 17.9013 93.866 17.7476 94.3403 17.4402C94.8145 17.1291 95.185 16.6737 95.4518 16.0739C95.7223 15.4704 95.8575 14.7319 95.8575 13.8585Z" fill="#FE6100"/>
<path d="M99.0973 19.6163V8.1008H101.159V17.8676H106.172V19.6163H99.0973Z" fill="#FE6100"/>
</g>
<defs>
<clipPath id="clip0_6377_138457">
<rect width="110" height="22" fill="white"/>
</clipPath>
</defs>
</svg>
