<svg width="16" height="16" viewBox="0 0 16 16" fill="none" xmlns="http://www.w3.org/2000/svg">
<path d="M13.9501 8.78333C13.9834 8.53333 14.0001 8.275 14.0001 8C14.0001 7.73333 13.9834 7.46667 13.9417 7.21667L15.6334 5.9C15.7834 5.78333 15.8251 5.55833 15.7334 5.39167L14.1334 2.625C14.0334 2.44167 13.8251 2.38333 13.6417 2.44167L11.6501 3.24167C11.2334 2.925 10.7917 2.65833 10.3001 2.45833L10.0001 0.341667C9.96672 0.141667 9.80005 0 9.60005 0H6.40005C6.20005 0 6.04172 0.141667 6.00838 0.341667L5.70838 2.45833C5.21672 2.65833 4.76672 2.93333 4.35838 3.24167L2.36672 2.44167C2.18338 2.375 1.97505 2.44167 1.87505 2.625L0.283384 5.39167C0.183384 5.56667 0.216717 5.78333 0.383384 5.9L2.07505 7.21667C2.03338 7.46667 2.00005 7.74167 2.00005 8C2.00005 8.25833 2.01672 8.53333 2.05838 8.78333L0.366717 10.1C0.216717 10.2167 0.175051 10.4417 0.266717 10.6083L1.86672 13.375C1.96672 13.5583 2.17505 13.6167 2.35838 13.5583L4.35005 12.7583C4.76672 13.075 5.20838 13.3417 5.70005 13.5417L6.00005 15.6583C6.04172 15.8583 6.20005 16 6.40005 16H9.60005C9.80005 16 9.96672 15.8583 9.99172 15.6583L10.2917 13.5417C10.7834 13.3417 11.2334 13.075 11.6417 12.7583L13.6334 13.5583C13.8167 13.625 14.0251 13.5583 14.1251 13.375L15.7251 10.6083C15.8251 10.425 15.7834 10.2167 15.6251 10.1L13.9501 8.78333ZM8.00005 11C6.35005 11 5.00005 9.65 5.00005 8C5.00005 6.35 6.35005 5 8.00005 5C9.65005 5 11.0001 6.35 11.0001 8C11.0001 9.65 9.65005 11 8.00005 11Z" />
</svg>
