<svg width="20" height="20" viewBox="0 0 20 20" fill="none" xmlns="http://www.w3.org/2000/svg">
<path d="M14.3 17.86L14.16 17.79C13.6 17.49 12.94 17.51 12.4 17.84L10.93 18.74C10.36 19.09 9.65 19.09 9.08 18.74L7.61 17.84C7.07 17.51 6.41 17.49 5.85 17.79L5.7 17.86C4.46 18.52 3 17.55 3 16.07V3C3 1.9 3.84 1 4.87 1H15.14C16.16 1 17 1.9 17 3V16.07C17 17.55 15.54 18.52 14.3 17.86Z" stroke="black" stroke-width="1.5" stroke-miterlimit="10" stroke-linecap="round" stroke-linejoin="round"/>
<path d="M8 11.5C8 12.6 8.9 13.5 10 13.5C11.1 13.5 12 12.6 12 11.5C12 10.4 11.1 9.5 10 9.5C8.9 9.5 8 8.6 8 7.5C8 6.4 8.9 5.5 10 5.5C11.1 5.5 12 6.4 12 7.5" stroke="black" stroke-width="1.5" stroke-miterlimit="10" stroke-linecap="round" stroke-linejoin="round"/>
<path d="M10 5.5V4.5" stroke="black" stroke-width="1.5" stroke-miterlimit="10" stroke-linecap="round" stroke-linejoin="round"/>
<path d="M10 13.5V14.5" stroke="black" stroke-width="1.5" stroke-miterlimit="10" stroke-linecap="round" stroke-linejoin="round"/>
</svg>
