<svg width="16" height="4" viewBox="0 0 16 4" fill="none" xmlns="http://www.w3.org/2000/svg">
<path d="M4 2.00012C4 0.900122 3.1 0.00012207 2 0.00012207C0.9 0.00012207 0 0.900122 0 2.00012C0 3.10012 0.9 4.00012 2 4.00012C3.1 4.00012 4 3.10012 4 2.00012ZM6 2.00012C6 3.10012 6.9 4.00012 8 4.00012C9.1 4.00012 10 3.10012 10 2.00012C10 0.900122 9.1 0.00012207 8 0.00012207C6.9 0.00012207 6 0.900122 6 2.00012ZM12 2.00012C12 3.10012 12.9 4.00012 14 4.00012C15.1 4.00012 16 3.10012 16 2.00012C16 0.900122 15.1 0.00012207 14 0.00012207C12.9 0.00012207 12 0.900122 12 2.00012Z" fill="#666666"/>
</svg>
