<svg width="20" height="20" viewBox="0 0 20 20" fill="none" xmlns="http://www.w3.org/2000/svg">
<path d="M17.795 2.20502C17.4908 1.90057 17.1297 1.65906 16.7321 1.49428C16.3346 1.3295 15.9085 1.24469 15.4781 1.24469C15.0478 1.24469 14.6217 1.3295 14.2241 1.49428C13.8266 1.65906 13.4654 1.90057 13.1612 2.20502L3.32124 12.045C2.85415 12.5128 2.52093 13.0973 2.35624 13.7375L1.26874 17.97C1.24178 18.0753 1.24274 18.1858 1.27155 18.2907C1.30035 18.3955 1.356 18.491 1.43299 18.5677C1.50999 18.6445 1.60566 18.6998 1.71058 18.7283C1.8155 18.7567 1.92602 18.7573 2.03124 18.73L6.26249 17.6438C6.90297 17.4796 7.48754 17.1463 7.95499 16.6788L17.795 6.83877C18.0994 6.53461 18.3409 6.17344 18.5057 5.7759C18.6705 5.37835 18.7553 4.95223 18.7553 4.52189C18.7553 4.09155 18.6705 3.66543 18.5057 3.26788C18.3409 2.87034 18.0994 2.50917 17.795 2.20502ZM14.045 3.08877C14.4251 2.70868 14.9406 2.49515 15.4781 2.49515C16.0156 2.49515 16.5312 2.70868 16.9112 3.08877C17.2913 3.46885 17.5049 3.98436 17.5049 4.52189C17.5049 5.05942 17.2913 5.57493 16.9112 5.95502L15.9375 6.92877L13.0712 4.06252L14.045 3.08877ZM12.1875 4.94627L15.0537 7.81252L7.07124 15.795C6.76186 16.1041 6.37501 16.3243 5.95124 16.4325L2.74249 17.2575L3.56749 14.0488C3.67509 13.6248 3.89537 13.2378 4.20499 12.9288L12.1875 4.94627Z" fill="white"/>
</svg>
