<svg width="24" height="24" viewBox="0 0 24 24" fill="none" xmlns="http://www.w3.org/2000/svg">
<path fill-rule="evenodd" clip-rule="evenodd" d="M18.45 3.56625H16.4663V2.5725C16.4663 2.29875 16.245 2.0775 15.9713 2.0775H14.4338C14.2013 0.94875 13.1963 0.09375 12 0.09375C10.8038 0.09375 9.79878 0.94875 9.57003 2.0775H8.03253C7.75878 2.0775 7.53753 2.29875 7.53753 2.5725V3.56625H5.55003C4.72878 3.56625 4.06128 4.23375 4.06128 5.055V22.4175C4.06128 23.2388 4.72878 23.9062 5.55003 23.9062H18.45C19.2713 23.9062 19.9388 23.2388 19.9388 22.4175V5.055C19.9388 4.23375 19.2713 3.56625 18.45 3.56625ZM12 1.0875C12.645 1.0875 13.2 1.50375 13.4025 2.08125H10.5938C10.6971 1.79079 10.8876 1.53938 11.1394 1.36147C11.3911 1.18356 11.6918 1.08787 12 1.0875ZM7.51127 19.77L9.16877 18.1125C9.36377 17.9175 9.67502 17.9175 9.87377 18.1125C10.0688 18.3075 10.0688 18.6187 9.87377 18.8137L7.86377 20.8237C7.76627 20.9212 7.53752 21.105 7.16252 20.8237L6.48377 20.145C6.28877 19.9537 6.28877 19.6387 6.48377 19.4437C6.67877 19.2487 6.99002 19.2487 7.18502 19.4437L7.51127 19.77ZM11.505 19.44H17.4563C17.73 19.44 17.955 19.6612 17.955 19.935C17.955 20.2087 17.7338 20.43 17.46 20.43H11.505C11.2313 20.43 11.01 20.2087 11.01 19.935C11.01 19.6612 11.2313 19.44 11.505 19.44ZM9.16877 13.1462L7.51127 14.8038L7.18502 14.4775C6.99002 14.2825 6.67877 14.2825 6.48377 14.4775C6.28877 14.6725 6.28877 14.9875 6.48377 15.1788L7.16252 15.8575C7.53752 16.1388 7.76627 15.955 7.86377 15.8575L9.87377 13.8475C10.0688 13.6525 10.0688 13.3413 9.87377 13.1462C9.67502 12.9513 9.36377 12.9513 9.16877 13.1462ZM17.4563 14.4738H11.505C11.2313 14.4738 11.01 14.695 11.01 14.9688C11.01 15.2425 11.2313 15.4638 11.505 15.4638H17.46C17.7338 15.4638 17.955 15.2425 17.955 14.9688C17.955 14.695 17.73 14.4738 17.4563 14.4738ZM7.51127 9.80375L9.16877 8.14625C9.36377 7.95125 9.67502 7.95125 9.87377 8.14625C10.0688 8.34125 10.0688 8.6525 9.87377 8.8475L7.86377 10.8575C7.76627 10.955 7.53752 11.1388 7.16252 10.8575L6.48377 10.1788C6.28877 9.9875 6.28877 9.6725 6.48377 9.4775C6.67877 9.2825 6.99002 9.2825 7.18502 9.4775L7.51127 9.80375ZM11.505 9.47375H17.4563C17.73 9.47375 17.955 9.695 17.955 9.96875C17.955 10.2425 17.7338 10.4638 17.46 10.4638H11.505C11.2313 10.4638 11.01 10.2425 11.01 9.96875C11.01 9.695 11.2313 9.47375 11.505 9.47375Z" fill="#666666"/>
</svg>
