<svg width="131" height="24" viewBox="0 0 131 24" fill="none" xmlns="http://www.w3.org/2000/svg">
<rect width="131" height="24" rx="12" fill="#87BC45"/>
<g clip-path="url(#clip0_3355_60665)">
<path d="M21.06 9.05331L16.6667 13.4466L14.2733 11.06L13.3333 12L16.6667 15.3333L22 9.99998L21.06 9.05331ZM18 5.33331C14.32 5.33331 11.3333 8.31998 11.3333 12C11.3333 15.68 14.32 18.6666 18 18.6666C21.68 18.6666 24.6667 15.68 24.6667 12C24.6667 8.31998 21.68 5.33331 18 5.33331ZM18 17.3333C15.0533 17.3333 12.6667 14.9466 12.6667 12C12.6667 9.05331 15.0533 6.66665 18 6.66665C20.9467 6.66665 23.3333 9.05331 23.3333 12C23.3333 14.9466 20.9467 17.3333 18 17.3333Z" fill="white"/>
</g>
<path d="M41.3602 10H39.9511C39.8678 9.5947 39.722 9.23864 39.5136 8.93182C39.3091 8.625 39.0591 8.36742 38.7636 8.15909C38.472 7.94697 38.1481 7.78788 37.792 7.68182C37.436 7.57576 37.0648 7.52273 36.6784 7.52273C35.9739 7.52273 35.3356 7.70076 34.7636 8.05682C34.1955 8.41288 33.7428 8.9375 33.4057 9.63068C33.0724 10.3239 32.9057 11.1742 32.9057 12.1818C32.9057 13.1894 33.0724 14.0398 33.4057 14.733C33.7428 15.4261 34.1955 15.9508 34.7636 16.3068C35.3356 16.6629 35.9739 16.8409 36.6784 16.8409C37.0648 16.8409 37.436 16.7879 37.792 16.6818C38.1481 16.5758 38.472 16.4186 38.7636 16.2102C39.0591 15.9981 39.3091 15.7386 39.5136 15.4318C39.722 15.1212 39.8678 14.7652 39.9511 14.3636H41.3602C41.2542 14.9583 41.061 15.4905 40.7807 15.9602C40.5004 16.4299 40.1519 16.8295 39.7352 17.1591C39.3186 17.4848 38.8508 17.733 38.3318 17.9034C37.8167 18.0739 37.2655 18.1591 36.6784 18.1591C35.686 18.1591 34.8034 17.9167 34.0307 17.4318C33.258 16.947 32.65 16.2576 32.2068 15.3636C31.7636 14.4697 31.542 13.4091 31.542 12.1818C31.542 10.9545 31.7636 9.89394 32.2068 9C32.65 8.10606 33.258 7.41667 34.0307 6.93182C34.8034 6.44697 35.686 6.20455 36.6784 6.20455C37.2655 6.20455 37.8167 6.28977 38.3318 6.46023C38.8508 6.63068 39.3186 6.88068 39.7352 7.21023C40.1519 7.53598 40.5004 7.93371 40.7807 8.40341C41.061 8.86932 41.2542 9.40151 41.3602 10ZM47.1509 18.1818C46.363 18.1818 45.6717 17.9943 45.077 17.6193C44.4861 17.2443 44.024 16.7197 43.6906 16.0455C43.3611 15.3712 43.1963 14.5833 43.1963 13.6818C43.1963 12.7727 43.3611 11.9792 43.6906 11.3011C44.024 10.6231 44.4861 10.0966 45.077 9.72159C45.6717 9.34659 46.363 9.15909 47.1509 9.15909C47.9387 9.15909 48.6281 9.34659 49.219 9.72159C49.8137 10.0966 50.2759 10.6231 50.6054 11.3011C50.9387 11.9792 51.1054 12.7727 51.1054 13.6818C51.1054 14.5833 50.9387 15.3712 50.6054 16.0455C50.2759 16.7197 49.8137 17.2443 49.219 17.6193C48.6281 17.9943 47.9387 18.1818 47.1509 18.1818ZM47.1509 16.9773C47.7493 16.9773 48.2418 16.8239 48.6281 16.517C49.0145 16.2102 49.3005 15.8068 49.4861 15.3068C49.6717 14.8068 49.7645 14.2652 49.7645 13.6818C49.7645 13.0985 49.6717 12.5549 49.4861 12.0511C49.3005 11.5473 49.0145 11.1402 48.6281 10.8295C48.2418 10.5189 47.7493 10.3636 47.1509 10.3636C46.5524 10.3636 46.0599 10.5189 45.6736 10.8295C45.2872 11.1402 45.0012 11.5473 44.8156 12.0511C44.63 12.5549 44.5372 13.0985 44.5372 13.6818C44.5372 14.2652 44.63 14.8068 44.8156 15.3068C45.0012 15.8068 45.2872 16.2102 45.6736 16.517C46.0599 16.8239 46.5524 16.9773 47.1509 16.9773ZM53.3023 18V9.27273H54.5977V10.6364H54.7114C54.8932 10.1705 55.1867 9.80871 55.592 9.55114C55.9973 9.28977 56.4841 9.15909 57.0523 9.15909C57.628 9.15909 58.1072 9.28977 58.4898 9.55114C58.8761 9.80871 59.1773 10.1705 59.3932 10.6364H59.4841C59.7076 10.1856 60.0428 9.82765 60.4898 9.5625C60.9367 9.29356 61.4727 9.15909 62.0977 9.15909C62.878 9.15909 63.5163 9.40341 64.0125 9.89205C64.5087 10.3769 64.7568 11.1326 64.7568 12.1591V18H63.4159V12.1591C63.4159 11.5152 63.2398 11.0549 62.8875 10.7784C62.5352 10.5019 62.1205 10.3636 61.6432 10.3636C61.0295 10.3636 60.5542 10.5492 60.217 10.9205C59.8799 11.2879 59.7114 11.7538 59.7114 12.3182V18H58.3477V12.0227C58.3477 11.5265 58.1867 11.1269 57.8648 10.8239C57.5428 10.517 57.128 10.3636 56.6205 10.3636C56.272 10.3636 55.9462 10.4564 55.6432 10.642C55.3439 10.8277 55.1015 11.0852 54.9159 11.4148C54.7341 11.7405 54.6432 12.1174 54.6432 12.5455V18H53.3023ZM67.3585 21.2727V9.27273H68.654V10.6591H68.8131C68.9116 10.5076 69.0479 10.3144 69.2222 10.0795C69.4002 9.84091 69.654 9.62879 69.9835 9.44318C70.3169 9.25379 70.7676 9.15909 71.3358 9.15909C72.0706 9.15909 72.7184 9.3428 73.279 9.71023C73.8396 10.0777 74.2771 10.5985 74.5915 11.2727C74.9059 11.947 75.0631 12.7424 75.0631 13.6591C75.0631 14.5833 74.9059 15.3845 74.5915 16.0625C74.2771 16.7367 73.8415 17.2595 73.2847 17.6307C72.7278 17.9981 72.0858 18.1818 71.3585 18.1818C70.7979 18.1818 70.3491 18.089 70.0119 17.9034C69.6748 17.714 69.4153 17.5 69.2335 17.2614C69.0517 17.0189 68.9116 16.8182 68.8131 16.6591H68.6994V21.2727H67.3585ZM68.6767 13.6364C68.6767 14.2955 68.7733 14.8769 68.9665 15.3807C69.1597 15.8807 69.4419 16.2727 69.8131 16.5568C70.1843 16.8371 70.6388 16.9773 71.1767 16.9773C71.7373 16.9773 72.2051 16.8295 72.5801 16.5341C72.9589 16.2348 73.243 15.8333 73.4324 15.3295C73.6256 14.822 73.7222 14.2576 73.7222 13.6364C73.7222 13.0227 73.6275 12.4697 73.4381 11.9773C73.2525 11.4811 72.9703 11.089 72.5915 10.8011C72.2165 10.5095 71.7449 10.3636 71.1767 10.3636C70.6313 10.3636 70.1729 10.5019 69.8017 10.7784C69.4305 11.0511 69.1502 11.4337 68.9608 11.9261C68.7714 12.4148 68.6767 12.9848 68.6767 13.6364ZM78.5994 6.36364V18H77.2585V6.36364H78.5994ZM81.2054 18V9.27273H82.5463V18H81.2054ZM81.8872 7.81818C81.6259 7.81818 81.4005 7.72917 81.2111 7.55114C81.0255 7.37311 80.9327 7.15909 80.9327 6.90909C80.9327 6.65909 81.0255 6.44508 81.2111 6.26705C81.4005 6.08902 81.6259 6 81.8872 6C82.1486 6 82.3721 6.08902 82.5577 6.26705C82.7471 6.44508 82.8418 6.65909 82.8418 6.90909C82.8418 7.15909 82.7471 7.37311 82.5577 7.55114C82.3721 7.72917 82.1486 7.81818 81.8872 7.81818ZM87.7205 18.2045C87.1674 18.2045 86.6655 18.1004 86.2148 17.892C85.764 17.6799 85.4061 17.375 85.1409 16.9773C84.8758 16.5758 84.7432 16.0909 84.7432 15.5227C84.7432 15.0227 84.8417 14.6174 85.0386 14.3068C85.2356 13.9924 85.4989 13.7462 85.8284 13.5682C86.158 13.3902 86.5216 13.2576 86.9193 13.1705C87.3208 13.0795 87.7242 13.0076 88.1295 12.9545C88.6599 12.8864 89.0898 12.8352 89.4193 12.8011C89.7527 12.7633 89.9951 12.7008 90.1466 12.6136C90.3019 12.5265 90.3795 12.375 90.3795 12.1591V12.1136C90.3795 11.553 90.2261 11.1174 89.9193 10.8068C89.6163 10.4962 89.1561 10.3409 88.5386 10.3409C87.8985 10.3409 87.3966 10.4811 87.033 10.7614C86.6693 11.0417 86.4136 11.3409 86.2659 11.6591L84.9932 11.2045C85.2205 10.6742 85.5235 10.2614 85.9023 9.96591C86.2849 9.66667 86.7015 9.45833 87.1523 9.34091C87.6068 9.2197 88.0538 9.15909 88.4932 9.15909C88.7735 9.15909 89.0955 9.19318 89.4591 9.26136C89.8265 9.32576 90.1807 9.46023 90.5216 9.66477C90.8663 9.86932 91.1523 10.178 91.3795 10.5909C91.6068 11.0038 91.7205 11.5568 91.7205 12.25V18H90.3795V16.8182H90.3114C90.2205 17.0076 90.0689 17.2102 89.8568 17.4261C89.6447 17.642 89.3625 17.8258 89.0102 17.9773C88.658 18.1288 88.228 18.2045 87.7205 18.2045ZM87.925 17C88.4553 17 88.9023 16.8958 89.2659 16.6875C89.6333 16.4792 89.9099 16.2102 90.0955 15.8807C90.2849 15.5511 90.3795 15.2045 90.3795 14.8409V13.6136C90.3227 13.6818 90.1977 13.7443 90.0045 13.8011C89.8152 13.8542 89.5955 13.9015 89.3455 13.9432C89.0992 13.9811 88.8587 14.0152 88.6239 14.0455C88.3928 14.072 88.2053 14.0947 88.0614 14.1136C87.7129 14.1591 87.3871 14.233 87.0841 14.3352C86.7849 14.4337 86.5424 14.5833 86.3568 14.7841C86.175 14.9811 86.0841 15.25 86.0841 15.5909C86.0841 16.0568 86.2564 16.4091 86.6011 16.6477C86.9496 16.8826 87.3909 17 87.925 17ZM95.6588 12.75V18H94.3179V9.27273H95.6134V10.6364H95.727C95.9315 10.1932 96.2421 9.83712 96.6588 9.56818C97.0755 9.29545 97.6134 9.15909 98.2724 9.15909C98.8634 9.15909 99.3804 9.2803 99.8236 9.52273C100.267 9.76136 100.611 10.125 100.858 10.6136C101.104 11.0985 101.227 11.7121 101.227 12.4545V18H99.8861V12.5455C99.8861 11.8598 99.7081 11.3258 99.352 10.9432C98.9959 10.5568 98.5073 10.3636 97.8861 10.3636C97.458 10.3636 97.0755 10.4564 96.7384 10.642C96.405 10.8277 96.1418 11.0985 95.9486 11.4545C95.7554 11.8106 95.6588 12.2424 95.6588 12.75ZM107.373 18.1818C106.555 18.1818 105.85 17.9886 105.259 17.6023C104.668 17.2159 104.214 16.6837 103.895 16.0057C103.577 15.3277 103.418 14.553 103.418 13.6818C103.418 12.7955 103.581 12.0133 103.907 11.3352C104.236 10.6534 104.695 10.1212 105.282 9.73864C105.873 9.35227 106.562 9.15909 107.35 9.15909C107.964 9.15909 108.517 9.27273 109.009 9.5C109.502 9.72727 109.905 10.0455 110.219 10.4545C110.534 10.8636 110.729 11.3409 110.805 11.8864H109.464C109.361 11.4886 109.134 11.1364 108.782 10.8295C108.433 10.5189 107.964 10.3636 107.373 10.3636C106.85 10.3636 106.392 10.5 105.998 10.7727C105.608 11.0417 105.303 11.4223 105.083 11.9148C104.867 12.4034 104.759 12.9773 104.759 13.6364C104.759 14.3106 104.865 14.8977 105.077 15.3977C105.293 15.8977 105.596 16.286 105.986 16.5625C106.38 16.839 106.842 16.9773 107.373 16.9773C107.721 16.9773 108.037 16.9167 108.322 16.7955C108.606 16.6742 108.846 16.5 109.043 16.2727C109.24 16.0455 109.38 15.7727 109.464 15.4545H110.805C110.729 15.9697 110.541 16.4337 110.242 16.8466C109.947 17.2557 109.555 17.5814 109.066 17.8239C108.581 18.0625 108.017 18.1818 107.373 18.1818ZM116.574 18.1818C115.733 18.1818 115.008 17.9962 114.398 17.625C113.792 17.25 113.324 16.7273 112.994 16.0568C112.669 15.3826 112.506 14.5985 112.506 13.7045C112.506 12.8106 112.669 12.0227 112.994 11.3409C113.324 10.6553 113.782 10.1212 114.369 9.73864C114.96 9.35227 115.65 9.15909 116.438 9.15909C116.892 9.15909 117.341 9.23485 117.784 9.38636C118.227 9.53788 118.631 9.78409 118.994 10.125C119.358 10.4621 119.648 10.9091 119.864 11.4659C120.08 12.0227 120.188 12.7083 120.188 13.5227V14.0909H113.46V12.9318H118.824C118.824 12.4394 118.725 12 118.528 11.6136C118.335 11.2273 118.059 10.9223 117.699 10.6989C117.343 10.4754 116.922 10.3636 116.438 10.3636C115.903 10.3636 115.441 10.4962 115.051 10.7614C114.665 11.0227 114.367 11.3636 114.159 11.7841C113.951 12.2045 113.847 12.6553 113.847 13.1364V13.9091C113.847 14.5682 113.96 15.1269 114.188 15.5852C114.419 16.0398 114.739 16.3864 115.148 16.625C115.557 16.8598 116.032 16.9773 116.574 16.9773C116.926 16.9773 117.244 16.928 117.528 16.8295C117.816 16.7273 118.064 16.5758 118.273 16.375C118.481 16.1705 118.642 15.9167 118.756 15.6136L120.051 15.9773C119.915 16.4167 119.686 16.803 119.364 17.1364C119.042 17.4659 118.644 17.7235 118.17 17.9091C117.697 18.0909 117.165 18.1818 116.574 18.1818Z" fill="white"/>
<defs>
<clipPath id="clip0_3355_60665">
<rect width="16" height="16" fill="white" transform="translate(10 4)"/>
</clipPath>
</defs>
</svg>
